<svg id="my-svg" width="100%" xmlns="http://www.w3.org/2000/svg" xmlns:xlink="http://www.w3.org/1999/xlink" class="flowchart" style="max-width: 640.111px; background-color: transparent;" viewBox="0 0 640.1105346679688 1145.7047119140625" role="graphics-document document" aria-roledescription="flowchart-v2"><style>#my-svg{font-family:"trebuchet ms",verdana,arial,sans-serif;font-size:16px;fill:#ccc;}@keyframes edge-animation-frame{from{stroke-dashoffset:0;}}@keyframes dash{to{stroke-dashoffset:0;}}#my-svg .edge-animation-slow{stroke-dasharray:9,5!important;stroke-dashoffset:900;animation:dash 50s linear infinite;stroke-linecap:round;}#my-svg .edge-animation-fast{stroke-dasharray:9,5!important;stroke-dashoffset:900;animation:dash 20s linear infinite;stroke-linecap:round;}#my-svg .error-icon{fill:#a44141;}#my-svg .error-text{fill:#ddd;stroke:#ddd;}#my-svg .edge-thickness-normal{stroke-width:1px;}#my-svg .edge-thickness-thick{stroke-width:3.5px;}#my-svg .edge-pattern-solid{stroke-dasharray:0;}#my-svg .edge-thickness-invisible{stroke-width:0;fill:none;}#my-svg .edge-pattern-dashed{stroke-dasharray:3;}#my-svg .edge-pattern-dotted{stroke-dasharray:2;}#my-svg .marker{fill:lightgrey;stroke:lightgrey;}#my-svg .marker.cross{stroke:lightgrey;}#my-svg svg{font-family:"trebuchet ms",verdana,arial,sans-serif;font-size:16px;}#my-svg p{margin:0;}#my-svg .label{font-family:"trebuchet ms",verdana,arial,sans-serif;color:#ccc;}#my-svg .cluster-label text{fill:#F9FFFE;}#my-svg .cluster-label span{color:#F9FFFE;}#my-svg .cluster-label span p{background-color:transparent;}#my-svg .label text,#my-svg span{fill:#ccc;color:#ccc;}#my-svg .node rect,#my-svg .node circle,#my-svg .node ellipse,#my-svg .node polygon,#my-svg .node path{fill:#1f2020;stroke:#ccc;stroke-width:1px;}#my-svg .rough-node .label text,#my-svg .node .label text,#my-svg .image-shape .label,#my-svg .icon-shape .label{text-anchor:middle;}#my-svg .node .katex path{fill:#000;stroke:#000;stroke-width:1px;}#my-svg .rough-node .label,#my-svg .node .label,#my-svg .image-shape .label,#my-svg .icon-shape .label{text-align:center;}#my-svg .node.clickable{cursor:pointer;}#my-svg .root .anchor path{fill:lightgrey!important;stroke-width:0;stroke:lightgrey;}#my-svg .arrowheadPath{fill:lightgrey;}#my-svg .edgePath .path{stroke:lightgrey;stroke-width:2.0px;}#my-svg .flowchart-link{stroke:lightgrey;fill:none;}#my-svg .edgeLabel{background-color:hsl(0, 0%, 34.4117647059%);text-align:center;}#my-svg .edgeLabel p{background-color:hsl(0, 0%, 34.4117647059%);}#my-svg .edgeLabel rect{opacity:0.5;background-color:hsl(0, 0%, 34.4117647059%);fill:hsl(0, 0%, 34.4117647059%);}#my-svg .labelBkg{background-color:rgba(87.75, 87.75, 87.75, 0.5);}#my-svg .cluster rect{fill:hsl(180, 1.5873015873%, 28.3529411765%);stroke:rgba(255, 255, 255, 0.25);stroke-width:1px;}#my-svg .cluster text{fill:#F9FFFE;}#my-svg .cluster span{color:#F9FFFE;}#my-svg div.mermaidTooltip{position:absolute;text-align:center;max-width:200px;padding:2px;font-family:"trebuchet ms",verdana,arial,sans-serif;font-size:12px;background:hsl(20, 1.5873015873%, 12.3529411765%);border:1px solid rgba(255, 255, 255, 0.25);border-radius:2px;pointer-events:none;z-index:100;}#my-svg .flowchartTitleText{text-anchor:middle;font-size:18px;fill:#ccc;}#my-svg rect.text{fill:none;stroke-width:0;}#my-svg .icon-shape,#my-svg .image-shape{background-color:hsl(0, 0%, 34.4117647059%);text-align:center;}#my-svg .icon-shape p,#my-svg .image-shape p{background-color:hsl(0, 0%, 34.4117647059%);padding:2px;}#my-svg .icon-shape rect,#my-svg .image-shape rect{opacity:0.5;background-color:hsl(0, 0%, 34.4117647059%);fill:hsl(0, 0%, 34.4117647059%);}#my-svg .label-icon{display:inline-block;height:1em;overflow:visible;vertical-align:-0.125em;}#my-svg .node .label-icon path{fill:currentColor;stroke:revert;stroke-width:revert;}#my-svg :root{--mermaid-font-family:"trebuchet ms",verdana,arial,sans-serif;}</style><g><marker id="my-svg_flowchart-v2-pointEnd" class="marker flowchart-v2" viewBox="0 0 10 10" refX="5" refY="5" markerUnits="userSpaceOnUse" markerWidth="8" markerHeight="8" orient="auto"><path d="M 0 0 L 10 5 L 0 10 z" class="arrowMarkerPath" style="stroke-width: 1; stroke-dasharray: 1, 0;"/></marker><marker id="my-svg_flowchart-v2-pointStart" class="marker flowchart-v2" viewBox="0 0 10 10" refX="4.5" refY="5" markerUnits="userSpaceOnUse" markerWidth="8" markerHeight="8" orient="auto"><path d="M 0 5 L 10 10 L 10 0 z" class="arrowMarkerPath" style="stroke-width: 1; stroke-dasharray: 1, 0;"/></marker><marker id="my-svg_flowchart-v2-circleEnd" class="marker flowchart-v2" viewBox="0 0 10 10" refX="11" refY="5" markerUnits="userSpaceOnUse" markerWidth="11" markerHeight="11" orient="auto"><circle cx="5" cy="5" r="5" class="arrowMarkerPath" style="stroke-width: 1; stroke-dasharray: 1, 0;"/></marker><marker id="my-svg_flowchart-v2-circleStart" class="marker flowchart-v2" viewBox="0 0 10 10" refX="-1" refY="5" markerUnits="userSpaceOnUse" markerWidth="11" markerHeight="11" orient="auto"><circle cx="5" cy="5" r="5" class="arrowMarkerPath" style="stroke-width: 1; stroke-dasharray: 1, 0;"/></marker><marker id="my-svg_flowchart-v2-crossEnd" class="marker cross flowchart-v2" viewBox="0 0 11 11" refX="12" refY="5.2" markerUnits="userSpaceOnUse" markerWidth="11" markerHeight="11" orient="auto"><path d="M 1,1 l 9,9 M 10,1 l -9,9" class="arrowMarkerPath" style="stroke-width: 2; stroke-dasharray: 1, 0;"/></marker><marker id="my-svg_flowchart-v2-crossStart" class="marker cross flowchart-v2" viewBox="0 0 11 11" refX="-1" refY="5.2" markerUnits="userSpaceOnUse" markerWidth="11" markerHeight="11" orient="auto"><path d="M 1,1 l 9,9 M 10,1 l -9,9" class="arrowMarkerPath" style="stroke-width: 2; stroke-dasharray: 1, 0;"/></marker><g class="root"><g class="clusters"/><g class="edgePaths"><path d="M254.127,40.5L254.043,44.583C253.96,48.667,253.793,56.833,253.71,64.417C253.627,72,253.627,79,253.627,82.5L253.627,86" id="L_Start_Q1_0" class="edge-thickness-normal edge-pattern-solid edge-thickness-normal edge-pattern-solid flowchart-link" style=";" data-edge="true" data-et="edge" data-id="L_Start_Q1_0" data-points="W3sieCI6MjU0LjEyNjU2NDAyNTg3ODksInkiOjQwLjV9LHsieCI6MjUzLjYyNjU2NDAyNTg3ODksInkiOjY1fSx7IngiOjI1My42MjY1NjQwMjU4Nzg5MywieSI6ODkuOTk5OTk5OTk5OTk5OTl9XQ==" marker-end="url(#my-svg_flowchart-v2-pointEnd)"/><path d="M198.385,207.802L171.676,222.926C144.968,238.049,91.55,268.297,64.841,305.344C38.133,342.391,38.133,386.239,38.133,430.087C38.133,473.934,38.133,517.782,38.133,561.755C38.133,605.727,38.133,649.824,38.133,693.922C38.133,738.019,38.133,782.117,38.133,823.248C38.133,864.379,38.133,902.544,38.133,940.709C38.133,978.874,38.133,1017.04,43.195,1041.551C48.256,1066.063,58.38,1076.921,63.441,1082.35L68.503,1087.779" id="L_Q1_RA_0" class="edge-thickness-normal edge-pattern-solid edge-thickness-normal edge-pattern-solid flowchart-link" style=";" data-edge="true" data-et="edge" data-id="L_Q1_RA_0" data-points="W3sieCI6MTk4LjM4NDkwNDkwNTY5NTEsInkiOjIwNy44MDIwODc4MjgwNTg0fSx7IngiOjM4LjEzMjgxMjUsInkiOjI5OC41NDM3NDY5NDgyNDIyfSx7IngiOjM4LjEzMjgxMjUsInkiOjQzMC4wODY3MTU2OTgyNDIyfSx7IngiOjM4LjEzMjgxMjUsInkiOjU2MS42Mjk2ODQ0NDgyNDIyfSx7IngiOjM4LjEzMjgxMjUsInkiOjY5My45MjE4NjczNzA2MDU1fSx7IngiOjM4LjEzMjgxMjUsInkiOjgyNi4yMTQwNTAyOTI5Njg4fSx7IngiOjM4LjEzMjgxMjUsInkiOjk0MC43MDkzNjU4NDQ3MjY2fSx7IngiOjM4LjEzMjgxMjUsInkiOjEwNTUuMjA0NjgxMzk2NDg0NH0seyJ4Ijo3MS4yMzA3MzM1ODA1MDg0NywieSI6MTA5MC43MDQ2ODEzOTY0ODQ0fV0=" marker-end="url(#my-svg_flowchart-v2-pointEnd)"/><path d="M283.854,232.816L289.737,243.77C295.619,254.725,307.384,276.634,313.266,292.839C319.148,309.044,319.148,319.544,319.148,324.794L319.148,330.044" id="L_Q1_Q2_0" class="edge-thickness-normal edge-pattern-solid edge-thickness-normal edge-pattern-solid flowchart-link" style=";" data-edge="true" data-et="edge" data-id="L_Q1_Q2_0" data-points="W3sieCI6MjgzLjg1NDQ2MjUwMTk4MDE1LCJ5IjoyMzIuODE1ODQ4NDcyMTQxfSx7IngiOjMxOS4xNDgwNDg0MDA4Nzg5LCJ5IjoyOTguNTQzNzQ2OTQ4MjQyMn0seyJ4IjozMTkuMTQ4MDQ4NDAwODc4OSwieSI6MzM0LjA0Mzc0Njk0ODI0MjEzfV0=" marker-end="url(#my-svg_flowchart-v2-pointEnd)"/><path d="M261.619,468.6L238.459,484.105C215.299,499.61,168.978,530.62,145.818,568.174C122.658,605.727,122.658,649.824,122.658,693.922C122.658,738.019,122.658,782.117,122.658,823.248C122.658,864.379,122.658,902.544,122.658,940.709C122.658,978.874,122.658,1017.04,119.996,1041.443C117.335,1065.846,112.011,1076.486,109.349,1081.807L106.687,1087.127" id="L_Q2_RA_0" class="edge-thickness-normal edge-pattern-solid edge-thickness-normal edge-pattern-solid flowchart-link" style=";" data-edge="true" data-et="edge" data-id="L_Q2_RA_0" data-points="W3sieCI6MjYxLjYxODg0MDE1NTE2MTIsInkiOjQ2OC42MDA0NzYyMDI1MjQ1M30seyJ4IjoxMjIuNjU4MjAzMTI1LCJ5Ijo1NjEuNjI5Njg0NDQ4MjQyMn0seyJ4IjoxMjIuNjU4MjAzMTI1LCJ5Ijo2OTMuOTIxODY3MzcwNjA1NX0seyJ4IjoxMjIuNjU4MjAzMTI1LCJ5Ijo4MjYuMjE0MDUwMjkyOTY4OH0seyJ4IjoxMjIuNjU4MjAzMTI1LCJ5Ijo5NDAuNzA5MzY1ODQ0NzI2Nn0seyJ4IjoxMjIuNjU4MjAzMTI1LCJ5IjoxMDU1LjIwNDY4MTM5NjQ4NDR9LHsieCI6MTA0Ljg5NzYyNjQ1NjU2Nzc5LCJ5IjoxMDkwLjcwNDY4MTM5NjQ4NDR9XQ==" marker-end="url(#my-svg_flowchart-v2-pointEnd)"/><path d="M353.948,491.33L360.606,503.046C367.263,514.763,380.579,538.196,387.236,555.163C393.894,572.13,393.894,582.63,393.894,587.88L393.894,593.13" id="L_Q2_Q3_0" class="edge-thickness-normal edge-pattern-solid edge-thickness-normal edge-pattern-solid flowchart-link" style=";" data-edge="true" data-et="edge" data-id="L_Q2_Q3_0" data-points="W3sieCI6MzUzLjk0NzkzODcwNjMzNzE0LCJ5Ijo0OTEuMzI5Nzk0MTQyNzg0fSx7IngiOjM5My44OTQxNDIxNTA4Nzg5LCJ5Ijo1NjEuNjI5Njg0NDQ4MjQyMn0seyJ4IjozOTMuODk0MTQyMTUwODc4OTYsInkiOjU5Ny4xMjk2ODQ0NDgyNDIyfV0=" marker-end="url(#my-svg_flowchart-v2-pointEnd)"/><path d="M347.508,744.328L334.948,757.975C322.389,771.623,297.269,798.919,284.71,825.599C272.15,852.279,272.15,878.344,272.15,891.377L272.15,904.409" id="L_Q3_RANote_0" class="edge-thickness-normal edge-pattern-solid edge-thickness-normal edge-pattern-solid flowchart-link" style=";" data-edge="true" data-et="edge" data-id="L_Q3_RANote_0" data-points="W3sieCI6MzQ3LjUwNzYyMDEzMDExOTM0LCJ5Ijo3NDQuMzI3NTI4MjcyMjA5Mn0seyJ4IjoyNzIuMTUwMzkwNjI1LCJ5Ijo4MjYuMjE0MDUwMjkyOTY4OH0seyJ4IjoyNzIuMTUwMzkwNjI1LCJ5Ijo5MDguNDA5MzY2NjA3NjY2fV0=" marker-end="url(#my-svg_flowchart-v2-pointEnd)"/><path d="M440.281,744.328L452.84,757.975C465.4,771.623,490.519,798.919,503.078,817.816C515.638,836.714,515.638,847.214,515.638,852.464L515.638,857.714" id="L_Q3_Q4_0" class="edge-thickness-normal edge-pattern-solid edge-thickness-normal edge-pattern-solid flowchart-link" style=";" data-edge="true" data-et="edge" data-id="L_Q3_Q4_0" data-points="W3sieCI6NDQwLjI4MDY2NDE3MTYzODQsInkiOjc0NC4zMjc1MjgyNzIyMDkyfSx7IngiOjUxNS42Mzc4OTM2NzY3NTc4LCJ5Ijo4MjYuMjE0MDUwMjkyOTY4OH0seyJ4Ijo1MTUuNjM3ODkzNjc2NzU3OCwieSI6ODYxLjcxNDA1MDI5Mjk2ODh9XQ==" marker-end="url(#my-svg_flowchart-v2-pointEnd)"/><path d="M467.408,971.475L445.531,985.43C423.655,999.385,379.901,1027.295,332.361,1047.481C284.821,1067.666,233.495,1080.128,207.832,1086.359L182.168,1092.59" id="L_Q4_RA_0" class="edge-thickness-normal edge-pattern-solid edge-thickness-normal edge-pattern-solid flowchart-link" style=";" data-edge="true" data-et="edge" data-id="L_Q4_RA_0" data-points="W3sieCI6NDY3LjQwODA1NDcwODA1OCwieSI6OTcxLjQ3NDg0MjQyNzc4NDd9LHsieCI6MzM2LjE0ODA0ODQwMDg3ODksInkiOjEwNTUuMjA0NjgxMzk2NDg0NH0seyJ4IjoxNzguMjgxMjUsInkiOjEwOTMuNTMzMzA5Mjg0ODg3M31d" marker-end="url(#my-svg_flowchart-v2-pointEnd)"/><path d="M530.259,1005.084L532.156,1013.437C534.053,1021.791,537.847,1038.498,539.745,1052.101C541.642,1065.705,541.642,1076.205,541.642,1081.455L541.642,1086.705" id="L_Q4_CDe_0" class="edge-thickness-normal edge-pattern-solid edge-thickness-normal edge-pattern-solid flowchart-link" style=";" data-edge="true" data-et="edge" data-id="L_Q4_CDe_0" data-points="W3sieCI6NTMwLjI1ODUyMTEzMjU4NDYsInkiOjEwMDUuMDg0MDUzOTQwNjU3Nn0seyJ4Ijo1NDEuNjQxNzk5OTI2NzU3OCwieSI6MTA1NS4yMDQ2ODEzOTY0ODQ0fSx7IngiOjU0MS42NDE3OTk5MjY3NTc4LCJ5IjoxMDkwLjcwNDY4MTM5NjQ4NDR9XQ==" marker-end="url(#my-svg_flowchart-v2-pointEnd)"/></g><g class="edgeLabels"><g><rect class="background" style="stroke: none"/></g><g class="edgeLabel"><g class="label" data-id="L_Start_Q1_0" transform="translate(0, 0)"><text y="-10.1"><tspan class="text-outer-tspan" x="0" y="-0.1em" dy="1.1em"/></text></g></g><g class="edgeLabel" transform="translate(38.1328125, 693.9218673706055)"><g class="label" data-id="L_Q1_RA_0" transform="translate(-18.0078125, -10.5)"><g><rect class="background" style="" x="-2" y="0" width="36.015625" height="21"/><text y="-10.1" style=""><tspan class="text-outer-tspan" x="0" y="-0.1em" dy="1.1em"><tspan font-style="normal" class="text-inner-tspan" font-weight="normal">YES</tspan></tspan></text></g></g></g><g class="edgeLabel" transform="translate(319.1480484008789, 298.5437469482422)"><g class="label" data-id="L_Q1_Q2_0" transform="translate(-14, -10.5)"><g><rect class="background" style="" x="-2" y="0" width="28" height="21"/><text y="-10.1" style=""><tspan class="text-outer-tspan" x="0" y="-0.1em" dy="1.1em"><tspan font-style="normal" class="text-inner-tspan" font-weight="normal">NO</tspan></tspan></text></g></g></g><g class="edgeLabel" transform="translate(122.658203125, 826.2140502929688)"><g class="label" data-id="L_Q2_RA_0" transform="translate(-18.0078125, -10.5)"><g><rect class="background" style="" x="-2" y="0" width="36.015625" height="21"/><text y="-10.1" style=""><tspan class="text-outer-tspan" x="0" y="-0.1em" dy="1.1em"><tspan font-style="normal" class="text-inner-tspan" font-weight="normal">YES</tspan></tspan></text></g></g></g><g class="edgeLabel" transform="translate(393.8941421508789, 561.6296844482422)"><g class="label" data-id="L_Q2_Q3_0" transform="translate(-61.65234375, -10.5)"><g><rect class="background" style="" x="-2" y="0" width="123.3046875" height="21"/><text y="-10.1" style=""><tspan class="text-outer-tspan" x="0" y="-0.1em" dy="1.1em"><tspan font-style="normal" class="text-inner-tspan" font-weight="normal">standard</tspan><tspan font-style="normal" class="text-inner-tspan" font-weight="normal"> change</tspan></tspan></text></g></g></g><g class="edgeLabel" transform="translate(272.150390625, 826.2140502929688)"><g class="label" data-id="L_Q3_RANote_0" transform="translate(-14, -10.5)"><g><rect class="background" style="" x="-2" y="0" width="28" height="21"/><text y="-10.1" style=""><tspan class="text-outer-tspan" x="0" y="-0.1em" dy="1.1em"><tspan font-style="normal" class="text-inner-tspan" font-weight="normal">NO</tspan></tspan></text></g></g></g><g class="edgeLabel" transform="translate(515.6378936767578, 826.2140502929688)"><g class="label" data-id="L_Q3_Q4_0" transform="translate(-14, -10.5)"><g><rect class="background" style="" x="-2" y="0" width="28" height="21"/><text y="-10.1" style=""><tspan class="text-outer-tspan" x="0" y="-0.1em" dy="1.1em"><tspan font-style="normal" class="text-inner-tspan" font-weight="normal">NO</tspan></tspan></text></g></g></g><g class="edgeLabel" transform="translate(332.86274, 1056.00232)"><g class="label" data-id="L_Q4_RA_0" transform="translate(-14, -10.5)"><g><rect class="background" style="" x="-2" y="0" width="28" height="21"/><text y="-10.1" style=""><tspan class="text-outer-tspan" x="0" y="-0.1em" dy="1.1em"><tspan font-style="normal" class="text-inner-tspan" font-weight="normal">NO</tspan></tspan></text></g></g></g><g class="edgeLabel" transform="translate(541.6417999267578, 1055.2046813964844)"><g class="label" data-id="L_Q4_CDe_0" transform="translate(-18.0078125, -10.5)"><g><rect class="background" style="" x="-2" y="0" width="36.015625" height="21"/><text y="-10.1" style=""><tspan class="text-outer-tspan" x="0" y="-0.1em" dy="1.1em"><tspan font-style="normal" class="text-inner-tspan" font-weight="normal">YES</tspan></tspan></text></g></g></g></g><g class="nodes"><g class="node default" id="flowchart-Start-0" transform="translate(253.6265640258789, 24)"><g class="basic label-container outer-path"><path d="M-21.09765625 -16 C-10.281743310477317 -16, 0.5341696290453655 -16, 21.09765625 -16 C21.09765625 -16, 21.09765625 -16, 21.09765625 -16 C21.411214707962724 -15.989944790557649, 21.72477316592545 -15.979889581115298, 22.122779769691405 -15.967126284005381 C22.417475056012204 -15.93869738415695, 22.712170342333003 -15.910268484308517, 23.143690836952093 -15.868640221171939 C23.499526313118828 -15.811111500930632, 23.855361789285567 -15.753582780689326, 24.156194309221956 -15.704946511857047 C24.437860843071757 -15.640657963551737, 24.719527376921555 -15.576369415246429, 25.156129592552116 -15.476717808624471 C25.439761014171253 -15.392537491499624, 25.72339243579039 -15.308357174374779, 26.13938773837793 -15.184891952170698 C26.46800235480973 -15.063958735643581, 26.79661697124153 -14.943025519116464, 27.101928328069985 -14.830668117536348 C27.462011377681396 -14.67127003295753, 27.822094427292807 -14.51187194837871, 28.03979607588093 -14.415501886438706 C28.313177902032272 -14.272878762844966, 28.58655972818362 -14.130255639251228, 28.949137082063 -13.941099265974232 C29.139203282659576 -13.825880018219614, 29.329269483256155 -13.710660770464994, 29.826214669368778 -13.409409678269451 C30.09479187918886 -13.222061843218986, 30.363369089008945 -13.034714008168523, 30.667424737859456 -12.822617949887306 C30.983367021187387 -12.570662386510536, 31.29930930451532 -12.318706823133766, 31.469310574924613 -12.183135333906153 C31.700846314308688 -11.9728607014975, 31.93238205369276 -11.762586069088849, 32.228577059655784 -11.493589601563642 C32.451192878173046 -11.263720491845959, 32.673808696690315 -11.033851382128276, 32.94210420320505 -10.756814244181072 C33.08962372461369 -10.583529420235923, 33.23714324602233 -10.410244596290774, 33.60695996948848 -9.975836829739738 C33.78471870935153 -9.737656312477588, 33.96247744921459 -9.499475795215439, 34.22041232355129 -9.153866561954718 C34.366424646966315 -8.929552423390513, 34.51243697038134 -8.705238284826308, 34.779940458085534 -8.294281092968403 C34.90539829692744 -8.071517996120848, 35.03085613576934 -7.848754899273293, 35.283245151968 -7.400612643853364 C35.44609555257921 -7.0624503025438194, 35.608945953190414 -6.724287961234276, 35.728258218252996 -6.476533489958305 C35.84550233380964 -6.186938257772627, 35.962746449366286 -5.897343025586949, 36.113151002796165 -5.52584087074093 C36.219941323070074 -5.204205440802802, 36.32673164334398 -4.882570010864674, 36.43634189858657 -4.552441386096524 C36.50074696034287 -4.3068369722894095, 36.56515202209917 -4.0612325584822955, 36.696502844909176 -3.560334943301032 C36.753775869146786 -3.266250068498861, 36.8110488933844 -2.9721651936966906, 36.892564784631205 -2.5535983205340735 C36.93166602433116 -2.250336826834375, 36.9707672640311 -1.947075333134677, 37.02372205718717 -1.536368414522911 C37.045361208490185 -1.1993211661699341, 37.0670003597932 -0.862273917816957, 37.089435709211 -0.5128252411464826 C37.089435709211 -0.15761930960036252, 37.089435709211 0.1975866219457576, 37.089435709211 0.5128252411464788 C37.07206038398472 0.783459956655929, 37.05468505875844 1.0540946721653792, 37.02372205718717 1.5363684145229002 C36.98366575520242 1.847037182705114, 36.943609453217675 2.157705950887328, 36.892564784631205 2.5535983205340624 C36.840835819241136 2.819215624891357, 36.78910685385107 3.0848329292486523, 36.696502844909176 3.5603349433010285 C36.634183838557526 3.7979843237480733, 36.571864832205875 4.035633704195118, 36.43634189858657 4.552441386096513 C36.32809047775934 4.878477418106481, 36.21983905693211 5.204513450116449, 36.113151002796165 5.525840870740919 C35.98400768102255 5.844827372338035, 35.85486435924893 6.163813873935151, 35.728258218253 6.4765334899583005 C35.62207670292059 6.697021678466529, 35.51589518758818 6.917509866974757, 35.283245151968 7.400612643853361 C35.16285182225036 7.614383191913636, 35.04245849253272 7.828153739973911, 34.77994045808554 8.294281092968399 C34.559113288363285 8.633530926059692, 34.33828611864103 8.972780759150986, 34.2204123235513 9.15386656195471 C34.00091083217771 9.447978563398085, 33.78140934080411 9.742090564841458, 33.60695996948848 9.975836829739734 C33.34648787212985 10.281802176579394, 33.08601577477121 10.587767523419053, 32.942104203205055 10.756814244181063 C32.691475180432306 11.015609287219373, 32.440846157659564 11.274404330257685, 32.228577059655784 11.493589601563638 C32.06181760732924 11.645036123953279, 31.895058155002697 11.79648264634292, 31.469310574924627 12.183135333906142 C31.207378959577806 12.392018826852214, 30.945447344230985 12.600902319798285, 30.66742473785946 12.822617949887304 C30.45403412281343 12.971470005412574, 30.2406435077674 13.120322060937841, 29.826214669368788 13.409409678269446 C29.578188384169042 13.55976466992177, 29.330162098969296 13.710119661574096, 28.949137082063004 13.94109926597423 C28.643382422204848 14.100611276177023, 28.337627762346695 14.260123286379816, 28.039796075880933 14.415501886438705 C27.77151540918264 14.534261779322817, 27.503234742484352 14.65302167220693, 27.10192832806999 14.830668117536346 C26.76113887144013 14.956081787799338, 26.42034941481027 15.081495458062331, 26.13938773837794 15.184891952170695 C25.869206403044544 15.265080354286878, 25.599025067711146 15.345268756403062, 25.156129592552134 15.476717808624468 C24.819815098926316 15.553479397137387, 24.483500605300502 15.630240985650309, 24.156194309221963 15.704946511857045 C23.792943333020236 15.763674112635947, 23.429692356818506 15.822401713414848, 23.143690836952103 15.868640221171937 C22.93933715024435 15.888353975557369, 22.734983463536597 15.908067729942799, 22.122779769691405 15.967126284005381 C21.783863406232737 15.977994672120818, 21.44494704277407 15.988863060236255, 21.097656250000004 16 C21.097656250000004 16, 21.097656250000004 16, 21.09765625 16 C4.3652828189753485 16, -12.367090612049303 16, -21.097656249999996 16 C-21.34291130215036 15.992135147837537, -21.58816635430072 15.984270295675074, -22.122779769691398 15.967126284005381 C-22.40983829585338 15.939434093224923, -22.69689682201536 15.911741902444465, -23.1436908369521 15.868640221171937 C-23.38873921241624 15.829022700205428, -23.633787587880384 15.78940517923892, -24.156194309221956 15.704946511857045 C-24.375125309198012 15.654976939770801, -24.594056309174064 15.605007367684555, -25.156129592552112 15.476717808624471 C-25.53610271586772 15.363943780144025, -25.91607583918333 15.251169751663578, -26.139387738377923 15.184891952170702 C-26.456780500248254 15.068088481855892, -26.774173262118584 14.951285011541081, -27.101928328069988 14.830668117536348 C-27.404607406825477 14.696681068027152, -27.707286485580966 14.562694018517957, -28.03979607588093 14.415501886438708 C-28.308834606848105 14.275144657160535, -28.57787313781528 14.134787427882364, -28.949137082063 13.941099265974234 C-29.153699070766177 13.817092586282687, -29.358261059469353 13.69308590659114, -29.826214669368767 13.409409678269457 C-30.15464002711047 13.18031436601344, -30.483065384852175 12.951219053757422, -30.667424737859456 12.822617949887308 C-30.977964149523704 12.574971032885871, -31.28850356118795 12.327324115884435, -31.469310574924613 12.183135333906154 C-31.76544563031909 11.914193311901094, -32.061580685713565 11.645251289896036, -32.22857705965578 11.493589601563649 C-32.428978130837116 11.286659042334987, -32.62937920201845 11.079728483106324, -32.94210420320505 10.756814244181069 C-33.11434831958716 10.554486504110766, -33.286592435969276 10.352158764040466, -33.60695996948847 9.97583682973974 C-33.845619853328536 9.656054327756756, -34.0842797371686 9.336271825773771, -34.22041232355129 9.15386656195472 C-34.43242130671439 8.828163831432937, -34.644430289877484 8.502461100911153, -34.779940458085534 8.29428109296841 C-34.934978539432755 8.018995280228305, -35.090016620779984 7.7437094674882, -35.283245151968 7.400612643853366 C-35.41767070828447 7.121475099916082, -35.552096264600934 6.842337555978799, -35.728258218252996 6.476533489958307 C-35.81654388993699 6.258466174011502, -35.904829561620986 6.040398858064698, -36.113151002796165 5.525840870740931 C-36.19043278830685 5.2930804459631, -36.267714573817535 5.060320021185268, -36.43634189858657 4.552441386096519 C-36.527153662144315 4.206136773583554, -36.61796542570205 3.859832161070589, -36.696502844909176 3.5603349433010343 C-36.76446293782385 3.21137422955491, -36.832423030738525 2.862413515808786, -36.892564784631205 2.5535983205340753 C-36.93490976420672 2.2251790209083824, -36.97725474378224 1.8967597212826899, -37.02372205718717 1.5363684145229202 C-37.04186078154107 1.2538431413962288, -37.05999950589496 0.9713178682695374, -37.089435709211 0.5128252411464846 C-37.089435709211 0.2068836493042262, -37.089435709211 -0.09905794253803224, -37.089435709211 -0.5128252411464769 C-37.07491024165185 -0.7390711231266809, -37.0603847740927 -0.9653170051068849, -37.02372205718717 -1.5363684145228982 C-36.97874232279808 -1.8852223521915268, -36.93376258840898 -2.2340762898601554, -36.892564784631205 -2.5535983205340678 C-36.84633608092985 -2.7909729436005084, -36.80010737722851 -3.028347566666949, -36.696502844909176 -3.5603349433010267 C-36.61631001720095 -3.8661449511438812, -36.53611718949273 -4.171954958986737, -36.436341898586576 -4.552441386096511 C-36.31355350294673 -4.922260470089671, -36.19076510730689 -5.2920795540828305, -36.11315100279617 -5.525840870740911 C-35.99762621925601 -5.81118931960486, -35.882101435715846 -6.096537768468808, -35.728258218253 -6.476533489958299 C-35.60334412260247 -6.735920282310107, -35.47843002695194 -6.995307074661916, -35.283245151968 -7.400612643853359 C-35.16556278911189 -7.609569595735825, -35.04788042625577 -7.81852654761829, -34.779940458085534 -8.294281092968404 C-34.57627731503494 -8.607162371905513, -34.37261417198435 -8.920043650842622, -34.220412323551294 -9.153866561954715 C-34.04102553511991 -9.394228515980148, -33.86163874668852 -9.634590470005582, -33.60695996948848 -9.975836829739734 C-33.391724076886334 -10.228665156459453, -33.17648818428419 -10.48149348317917, -32.942104203205055 -10.756814244181063 C-32.74750923648597 -10.957749523862411, -32.55291426976688 -11.158684803543759, -32.22857705965579 -11.493589601563633 C-32.00364089463881 -11.69787067514726, -31.77870472962183 -11.902151748730889, -31.469310574924627 -12.18313533390614 C-31.24981545389753 -12.358176851914774, -31.03032033287043 -12.533218369923409, -30.667424737859463 -12.822617949887302 C-30.459661450467415 -12.967544625244239, -30.25189816307537 -13.112471300601175, -29.826214669368788 -13.409409678269444 C-29.537915619044853 -13.584178256809091, -29.249616568720914 -13.75894683534874, -28.949137082063007 -13.941099265974229 C-28.646197947525124 -14.099142418420866, -28.34325881298724 -14.257185570867506, -28.039796075880936 -14.415501886438705 C-27.74899564350244 -14.54423061156433, -27.458195211123943 -14.672959336689956, -27.101928328069995 -14.830668117536344 C-26.90812323683887 -14.901990182624024, -26.714318145607738 -14.973312247711704, -26.13938773837794 -15.184891952170695 C-25.921920496844 -15.249435087949124, -25.704453255310057 -15.313978223727554, -25.156129592552134 -15.476717808624466 C-24.798052641443263 -15.558446536044586, -24.439975690334393 -15.640175263464707, -24.156194309221963 -15.704946511857043 C-23.781922351427845 -15.765455899470815, -23.407650393633727 -15.825965287084587, -23.143690836952107 -15.868640221171937 C-22.858928062055924 -15.896110943588829, -22.57416528715974 -15.92358166600572, -22.12277976969141 -15.967126284005381 C-21.835789636697267 -15.976329498978098, -21.54879950370313 -15.985532713950812, -21.097656250000004 -16 C-21.097656250000004 -16, -21.09765625 -16, -21.09765625 -16" stroke="none" stroke-width="0" fill="#1f2020" style=""/><path d="M-21.09765625 -16 C-8.671805346092071 -16, 3.754045557815857 -16, 21.09765625 -16 M-21.09765625 -16 C-9.646412616851512 -16, 1.8048310162969763 -16, 21.09765625 -16 M21.09765625 -16 C21.09765625 -16, 21.09765625 -16, 21.09765625 -16 M21.09765625 -16 C21.09765625 -16, 21.09765625 -16, 21.09765625 -16 M21.09765625 -16 C21.408404283225536 -15.990034915408812, 21.719152316451073 -15.980069830817621, 22.122779769691405 -15.967126284005381 M21.09765625 -16 C21.447165057294605 -15.988791932827686, 21.79667386458921 -15.97758386565537, 22.122779769691405 -15.967126284005381 M22.122779769691405 -15.967126284005381 C22.33724493499047 -15.94643708744108, 22.551710100289533 -15.925747890876776, 23.143690836952093 -15.868640221171939 M22.122779769691405 -15.967126284005381 C22.457375224739213 -15.93484826286683, 22.79197067978702 -15.902570241728275, 23.143690836952093 -15.868640221171939 M23.143690836952093 -15.868640221171939 C23.48647411317446 -15.813221679396316, 23.829257389396822 -15.757803137620694, 24.156194309221956 -15.704946511857047 M23.143690836952093 -15.868640221171939 C23.51393265104943 -15.808782395936833, 23.884174465146767 -15.748924570701726, 24.156194309221956 -15.704946511857047 M24.156194309221956 -15.704946511857047 C24.45001822784037 -15.637883119812651, 24.743842146458785 -15.570819727768255, 25.156129592552116 -15.476717808624471 M24.156194309221956 -15.704946511857047 C24.494474341543743 -15.62773630196311, 24.832754373865534 -15.550526092069171, 25.156129592552116 -15.476717808624471 M25.156129592552116 -15.476717808624471 C25.410464277502776 -15.40123260916112, 25.664798962453432 -15.325747409697769, 26.13938773837793 -15.184891952170698 M25.156129592552116 -15.476717808624471 C25.491604616529244 -15.377150582452394, 25.827079640506373 -15.277583356280317, 26.13938773837793 -15.184891952170698 M26.13938773837793 -15.184891952170698 C26.485739408753563 -15.057431335832721, 26.832091079129196 -14.929970719494744, 27.101928328069985 -14.830668117536348 M26.13938773837793 -15.184891952170698 C26.474554179384143 -15.061547603635795, 26.80972062039035 -14.938203255100893, 27.101928328069985 -14.830668117536348 M27.101928328069985 -14.830668117536348 C27.44144929046151 -14.680372259017128, 27.78097025285303 -14.530076400497908, 28.03979607588093 -14.415501886438706 M27.101928328069985 -14.830668117536348 C27.469587203872937 -14.667916439431435, 27.837246079675886 -14.50516476132652, 28.03979607588093 -14.415501886438706 M28.03979607588093 -14.415501886438706 C28.2618005859304 -14.299682275746573, 28.48380509597987 -14.18386266505444, 28.949137082063 -13.941099265974232 M28.03979607588093 -14.415501886438706 C28.39218153038239 -14.231662620538948, 28.744566984883857 -14.04782335463919, 28.949137082063 -13.941099265974232 M28.949137082063 -13.941099265974232 C29.22231906662734 -13.775494741535793, 29.49550105119168 -13.609890217097352, 29.826214669368778 -13.409409678269451 M28.949137082063 -13.941099265974232 C29.156253985267046 -13.815543782097915, 29.36337088847109 -13.689988298221598, 29.826214669368778 -13.409409678269451 M29.826214669368778 -13.409409678269451 C30.10350216941908 -13.215985921816774, 30.380789669469383 -13.022562165364095, 30.667424737859456 -12.822617949887306 M29.826214669368778 -13.409409678269451 C30.147436022614002 -13.185339567693848, 30.468657375859227 -12.961269457118243, 30.667424737859456 -12.822617949887306 M30.667424737859456 -12.822617949887306 C30.951492074898095 -12.596081807948304, 31.235559411936734 -12.3695456660093, 31.469310574924613 -12.183135333906153 M30.667424737859456 -12.822617949887306 C30.916766365072284 -12.62377463744444, 31.166107992285113 -12.424931325001573, 31.469310574924613 -12.183135333906153 M31.469310574924613 -12.183135333906153 C31.70808611645188 -11.966285704745719, 31.946861657979152 -11.749436075585285, 32.228577059655784 -11.493589601563642 M31.469310574924613 -12.183135333906153 C31.69940234066182 -11.974172080158137, 31.929494106399027 -11.76520882641012, 32.228577059655784 -11.493589601563642 M32.228577059655784 -11.493589601563642 C32.45627746703612 -11.258470236392332, 32.68397787441645 -11.023350871221023, 32.94210420320505 -10.756814244181072 M32.228577059655784 -11.493589601563642 C32.48841414656776 -11.225286476305447, 32.74825123347974 -10.956983351047255, 32.94210420320505 -10.756814244181072 M32.94210420320505 -10.756814244181072 C33.178238100370905 -10.479437932170676, 33.414371997536755 -10.20206162016028, 33.60695996948848 -9.975836829739738 M32.94210420320505 -10.756814244181072 C33.18401123927838 -10.47265647470905, 33.4259182753517 -10.188498705237027, 33.60695996948848 -9.975836829739738 M33.60695996948848 -9.975836829739738 C33.81779745939086 -9.693333800961017, 34.028634949293235 -9.410830772182297, 34.22041232355129 -9.153866561954718 M33.60695996948848 -9.975836829739738 C33.765026456089416 -9.764042137847648, 33.92309294269035 -9.552247445955558, 34.22041232355129 -9.153866561954718 M34.22041232355129 -9.153866561954718 C34.38616617875534 -8.899224129219023, 34.55192003395939 -8.64458169648333, 34.779940458085534 -8.294281092968403 M34.22041232355129 -9.153866561954718 C34.37768277605749 -8.912256913875511, 34.534953228563694 -8.670647265796305, 34.779940458085534 -8.294281092968403 M34.779940458085534 -8.294281092968403 C34.90020654289204 -8.08073648113279, 35.02047262769856 -7.8671918692971765, 35.283245151968 -7.400612643853364 M34.779940458085534 -8.294281092968403 C34.95278840419832 -7.987372061892673, 35.12563635031111 -7.680463030816944, 35.283245151968 -7.400612643853364 M35.283245151968 -7.400612643853364 C35.42183667584433 -7.112824379140598, 35.56042819972066 -6.8250361144278315, 35.728258218252996 -6.476533489958305 M35.283245151968 -7.400612643853364 C35.41746777354748 -7.121896498239555, 35.55169039512695 -6.843180352625746, 35.728258218252996 -6.476533489958305 M35.728258218252996 -6.476533489958305 C35.83790327885874 -6.20570807041908, 35.94754833946449 -5.934882650879855, 36.113151002796165 -5.52584087074093 M35.728258218252996 -6.476533489958305 C35.87712874554989 -6.108820409319139, 36.02599927284678 -5.7411073286799725, 36.113151002796165 -5.52584087074093 M36.113151002796165 -5.52584087074093 C36.23676794819531 -5.153526326884234, 36.36038489359445 -4.781211783027539, 36.43634189858657 -4.552441386096524 M36.113151002796165 -5.52584087074093 C36.24166770825704 -5.138769030249041, 36.370184413717915 -4.751697189757152, 36.43634189858657 -4.552441386096524 M36.43634189858657 -4.552441386096524 C36.50023452950896 -4.3087910931480495, 36.56412716043135 -4.0651408001995755, 36.696502844909176 -3.560334943301032 M36.43634189858657 -4.552441386096524 C36.49591888694898 -4.325248508640568, 36.55549587531139 -4.098055631184613, 36.696502844909176 -3.560334943301032 M36.696502844909176 -3.560334943301032 C36.753042841551114 -3.2700140102772193, 36.80958283819305 -2.979693077253406, 36.892564784631205 -2.5535983205340735 M36.696502844909176 -3.560334943301032 C36.769017923166615 -3.187985342516295, 36.84153300142406 -2.8156357417315583, 36.892564784631205 -2.5535983205340735 M36.892564784631205 -2.5535983205340735 C36.92761231632289 -2.28177658565128, 36.96265984801458 -2.0099548507684863, 37.02372205718717 -1.536368414522911 M36.892564784631205 -2.5535983205340735 C36.936317705669566 -2.214259304952029, 36.98007062670793 -1.8749202893699852, 37.02372205718717 -1.536368414522911 M37.02372205718717 -1.536368414522911 C37.03971486244409 -1.2872675634863053, 37.055707667701014 -1.0381667124496998, 37.089435709211 -0.5128252411464826 M37.02372205718717 -1.536368414522911 C37.03831402703572 -1.3090867057057674, 37.052905996884256 -1.0818049968886234, 37.089435709211 -0.5128252411464826 M37.089435709211 -0.5128252411464826 C37.089435709211 -0.14729186878752998, 37.089435709211 0.2182415035714227, 37.089435709211 0.5128252411464788 M37.089435709211 -0.5128252411464826 C37.089435709211 -0.12051048178218765, 37.089435709211 0.27180427758210735, 37.089435709211 0.5128252411464788 M37.089435709211 0.5128252411464788 C37.07448676071193 0.7456671805936623, 37.059537812212845 0.9785091200408459, 37.02372205718717 1.5363684145229002 M37.089435709211 0.5128252411464788 C37.067176478937235 0.8595307199877207, 37.04491724866347 1.2062361988289625, 37.02372205718717 1.5363684145229002 M37.02372205718717 1.5363684145229002 C36.988228143515954 1.8116521998908208, 36.952734229844744 2.0869359852587417, 36.892564784631205 2.5535983205340624 M37.02372205718717 1.5363684145229002 C36.975492888080986 1.91042432618382, 36.9272637189748 2.28448023784474, 36.892564784631205 2.5535983205340624 M36.892564784631205 2.5535983205340624 C36.83766550434873 2.8354945218175676, 36.78276622406626 3.1173907231010727, 36.696502844909176 3.5603349433010285 M36.892564784631205 2.5535983205340624 C36.839999417256664 2.823510372307996, 36.78743404988212 3.0934224240819295, 36.696502844909176 3.5603349433010285 M36.696502844909176 3.5603349433010285 C36.60514024123031 3.9087401479314607, 36.51377763755144 4.257145352561893, 36.43634189858657 4.552441386096513 M36.696502844909176 3.5603349433010285 C36.62767922933527 3.8227892178280083, 36.55885561376137 4.085243492354989, 36.43634189858657 4.552441386096513 M36.43634189858657 4.552441386096513 C36.363505464709185 4.771813120025439, 36.2906690308318 4.9911848539543655, 36.113151002796165 5.525840870740919 M36.43634189858657 4.552441386096513 C36.35300634962953 4.80343478183854, 36.269670800672486 5.054428177580568, 36.113151002796165 5.525840870740919 M36.113151002796165 5.525840870740919 C35.99605784585122 5.81506323223713, 35.878964688906265 6.104285593733342, 35.728258218253 6.4765334899583005 M36.113151002796165 5.525840870740919 C35.97131755038309 5.876172240364465, 35.829484097970024 6.226503609988011, 35.728258218253 6.4765334899583005 M35.728258218253 6.4765334899583005 C35.60168591579395 6.7393635842279505, 35.4751136133349 7.002193678497601, 35.283245151968 7.400612643853361 M35.728258218253 6.4765334899583005 C35.62883222849832 6.6829936850592855, 35.52940623874363 6.889453880160271, 35.283245151968 7.400612643853361 M35.283245151968 7.400612643853361 C35.17808823337868 7.587329401101368, 35.072931314789365 7.774046158349374, 34.77994045808554 8.294281092968399 M35.283245151968 7.400612643853361 C35.16035675090065 7.618813443748416, 35.0374683498333 7.837014243643472, 34.77994045808554 8.294281092968399 M34.77994045808554 8.294281092968399 C34.66647540797561 8.468593879569356, 34.55301035786568 8.642906666170314, 34.2204123235513 9.15386656195471 M34.77994045808554 8.294281092968399 C34.559375661280875 8.63312785080128, 34.338810864476216 8.971974608634161, 34.2204123235513 9.15386656195471 M34.2204123235513 9.15386656195471 C34.03271876341247 9.405358833305653, 33.84502520327363 9.6568511046566, 33.60695996948848 9.975836829739734 M34.2204123235513 9.15386656195471 C34.02013166862781 9.422224393609167, 33.819851013704316 9.690582225263626, 33.60695996948848 9.975836829739734 M33.60695996948848 9.975836829739734 C33.45603060002824 10.153127055232144, 33.305101230568 10.330417280724555, 32.942104203205055 10.756814244181063 M33.60695996948848 9.975836829739734 C33.38104451829799 10.241209973661418, 33.15512906710751 10.506583117583101, 32.942104203205055 10.756814244181063 M32.942104203205055 10.756814244181063 C32.775693509955275 10.928646947533467, 32.60928281670549 11.100479650885871, 32.228577059655784 11.493589601563638 M32.942104203205055 10.756814244181063 C32.74387930588968 10.961497725225925, 32.5456544085743 11.166181206270787, 32.228577059655784 11.493589601563638 M32.228577059655784 11.493589601563638 C31.986222142241612 11.713689925199462, 31.74386722482744 11.933790248835288, 31.469310574924627 12.183135333906142 M32.228577059655784 11.493589601563638 C32.031903636641076 11.672203200651976, 31.83523021362637 11.850816799740317, 31.469310574924627 12.183135333906142 M31.469310574924627 12.183135333906142 C31.149160023325184 12.438446879242722, 30.82900947172574 12.6937584245793, 30.66742473785946 12.822617949887304 M31.469310574924627 12.183135333906142 C31.2520269000414 12.356413282464091, 31.03474322515817 12.529691231022042, 30.66742473785946 12.822617949887304 M30.66742473785946 12.822617949887304 C30.485360500689023 12.949618080303601, 30.303296263518583 13.076618210719898, 29.826214669368788 13.409409678269446 M30.66742473785946 12.822617949887304 C30.471628092255465 12.959197213960472, 30.275831446651466 13.09577647803364, 29.826214669368788 13.409409678269446 M29.826214669368788 13.409409678269446 C29.477399469645288 13.620863502207476, 29.12858426992179 13.832317326145505, 28.949137082063004 13.94109926597423 M29.826214669368788 13.409409678269446 C29.50048647753858 13.606868022348246, 29.17475828570837 13.804326366427045, 28.949137082063004 13.94109926597423 M28.949137082063004 13.94109926597423 C28.591268606324007 14.127799020541566, 28.233400130585007 14.314498775108904, 28.039796075880933 14.415501886438705 M28.949137082063004 13.94109926597423 C28.629765643845985 14.10771514072488, 28.310394205628967 14.274331015475529, 28.039796075880933 14.415501886438705 M28.039796075880933 14.415501886438705 C27.675242809832554 14.576878803229908, 27.31068954378418 14.738255720021114, 27.10192832806999 14.830668117536346 M28.039796075880933 14.415501886438705 C27.78828167616961 14.526839850281325, 27.536767276458292 14.638177814123946, 27.10192832806999 14.830668117536346 M27.10192832806999 14.830668117536346 C26.747317433091577 14.961168204875582, 26.392706538113163 15.091668292214818, 26.13938773837794 15.184891952170695 M27.10192832806999 14.830668117536346 C26.718939233269626 14.971611644735264, 26.33595013846926 15.112555171934181, 26.13938773837794 15.184891952170695 M26.13938773837794 15.184891952170695 C25.786032191234867 15.289766023761644, 25.432676644091792 15.394640095352592, 25.156129592552134 15.476717808624468 M26.13938773837794 15.184891952170695 C25.76648899064818 15.29556634311142, 25.39359024291842 15.406240734052142, 25.156129592552134 15.476717808624468 M25.156129592552134 15.476717808624468 C24.774139925256378 15.563904457469189, 24.392150257960626 15.651091106313908, 24.156194309221963 15.704946511857045 M25.156129592552134 15.476717808624468 C24.784203444972533 15.561607524764579, 24.412277297392937 15.64649724090469, 24.156194309221963 15.704946511857045 M24.156194309221963 15.704946511857045 C23.93433531243719 15.74081495391499, 23.71247631565242 15.776683395972935, 23.143690836952103 15.868640221171937 M24.156194309221963 15.704946511857045 C23.921009349681647 15.742969392228922, 23.685824390141327 15.7809922726008, 23.143690836952103 15.868640221171937 M23.143690836952103 15.868640221171937 C22.762673347707302 15.90539652011881, 22.381655858462505 15.942152819065681, 22.122779769691405 15.967126284005381 M23.143690836952103 15.868640221171937 C22.905386555205723 15.89162914862918, 22.667082273459343 15.914618076086423, 22.122779769691405 15.967126284005381 M22.122779769691405 15.967126284005381 C21.90519808559425 15.97410370511732, 21.687616401497095 15.981081126229261, 21.097656250000004 16 M22.122779769691405 15.967126284005381 C21.82646041734772 15.976628668884413, 21.530141065004038 15.986131053763446, 21.097656250000004 16 M21.097656250000004 16 C21.097656250000004 16, 21.09765625 16, 21.09765625 16 M21.097656250000004 16 C21.097656250000004 16, 21.09765625 16, 21.09765625 16 M21.09765625 16 C5.008249332520009 16, -11.081157584959982 16, -21.097656249999996 16 M21.09765625 16 C4.350470735952548 16, -12.396714778094903 16, -21.097656249999996 16 M-21.097656249999996 16 C-21.419097410278212 15.98969200763714, -21.740538570556428 15.979384015274281, -22.122779769691398 15.967126284005381 M-21.097656249999996 16 C-21.332452363566787 15.992470545640824, -21.567248477133578 15.984941091281646, -22.122779769691398 15.967126284005381 M-22.122779769691398 15.967126284005381 C-22.38286683451273 15.942035997662527, -22.642953899334056 15.916945711319674, -23.1436908369521 15.868640221171937 M-22.122779769691398 15.967126284005381 C-22.357553149352515 15.944477978425773, -22.592326529013633 15.921829672846163, -23.1436908369521 15.868640221171937 M-23.1436908369521 15.868640221171937 C-23.36895675031311 15.832220975262977, -23.59422266367412 15.795801729354018, -24.156194309221956 15.704946511857045 M-23.1436908369521 15.868640221171937 C-23.467257586311437 15.816328458433137, -23.790824335670777 15.764016695694337, -24.156194309221956 15.704946511857045 M-24.156194309221956 15.704946511857045 C-24.375873707052644 15.654806122844233, -24.595553104883333 15.604665733831421, -25.156129592552112 15.476717808624471 M-24.156194309221956 15.704946511857045 C-24.417373390747443 15.645334090851641, -24.678552472272926 15.585721669846235, -25.156129592552112 15.476717808624471 M-25.156129592552112 15.476717808624471 C-25.45823717316268 15.387053864494305, -25.76034475377325 15.297389920364141, -26.139387738377923 15.184891952170702 M-25.156129592552112 15.476717808624471 C-25.499489005057804 15.374810537323118, -25.842848417563495 15.272903266021764, -26.139387738377923 15.184891952170702 M-26.139387738377923 15.184891952170702 C-26.512860555053077 15.047450503289372, -26.886333371728234 14.910009054408043, -27.101928328069988 14.830668117536348 M-26.139387738377923 15.184891952170702 C-26.43495051944562 15.07612211658539, -26.73051330051332 14.96735228100008, -27.101928328069988 14.830668117536348 M-27.101928328069988 14.830668117536348 C-27.407242065258885 14.69551478289305, -27.71255580244778 14.560361448249749, -28.03979607588093 14.415501886438708 M-27.101928328069988 14.830668117536348 C-27.42428900400703 14.687968608788717, -27.746649679944067 14.545269100041086, -28.03979607588093 14.415501886438708 M-28.03979607588093 14.415501886438708 C-28.273898453181165 14.293370826150904, -28.5080008304814 14.171239765863099, -28.949137082063 13.941099265974234 M-28.03979607588093 14.415501886438708 C-28.238104884457854 14.31204430802698, -28.43641369303478 14.208586729615252, -28.949137082063 13.941099265974234 M-28.949137082063 13.941099265974234 C-29.29711915169687 13.730150490392552, -29.64510122133074 13.51920171481087, -29.826214669368767 13.409409678269457 M-28.949137082063 13.941099265974234 C-29.230715852806355 13.770404560409082, -29.512294623549707 13.59970985484393, -29.826214669368767 13.409409678269457 M-29.826214669368767 13.409409678269457 C-30.118067950086793 13.205825463765459, -30.409921230804816 13.002241249261463, -30.667424737859456 12.822617949887308 M-29.826214669368767 13.409409678269457 C-30.084361380243777 13.229337707754055, -30.342508091118784 13.049265737238656, -30.667424737859456 12.822617949887308 M-30.667424737859456 12.822617949887308 C-30.91671134624835 12.623818513492417, -31.165997954637245 12.425019077097524, -31.469310574924613 12.183135333906154 M-30.667424737859456 12.822617949887308 C-30.8403099278703 12.68474661152178, -31.013195117881146 12.546875273156253, -31.469310574924613 12.183135333906154 M-31.469310574924613 12.183135333906154 C-31.627580213407125 12.039399035821498, -31.785849851889637 11.895662737736842, -32.22857705965578 11.493589601563649 M-31.469310574924613 12.183135333906154 C-31.69108967499196 11.981721423178422, -31.91286877505931 11.78030751245069, -32.22857705965578 11.493589601563649 M-32.22857705965578 11.493589601563649 C-32.43554313029994 11.27988014139314, -32.6425092009441 11.066170681222632, -32.94210420320505 10.756814244181069 M-32.22857705965578 11.493589601563649 C-32.500219937615746 11.213096027774936, -32.77186281557571 10.932602453986222, -32.94210420320505 10.756814244181069 M-32.94210420320505 10.756814244181069 C-33.113170155838276 10.555870442289624, -33.284236108471504 10.35492664039818, -33.60695996948847 9.97583682973974 M-32.94210420320505 10.756814244181069 C-33.101926801709844 10.569077525813855, -33.26174940021464 10.38134080744664, -33.60695996948847 9.97583682973974 M-33.60695996948847 9.97583682973974 C-33.79380191694293 9.72548564180234, -33.9806438643974 9.47513445386494, -34.22041232355129 9.15386656195472 M-33.60695996948847 9.97583682973974 C-33.81593047524974 9.695835389624353, -34.024900981011015 9.415833949508965, -34.22041232355129 9.15386656195472 M-34.22041232355129 9.15386656195472 C-34.343181135013225 8.965260699507343, -34.46594994647516 8.776654837059969, -34.779940458085534 8.29428109296841 M-34.22041232355129 9.15386656195472 C-34.39409001856915 8.887050983416094, -34.56776771358702 8.620235404877468, -34.779940458085534 8.29428109296841 M-34.779940458085534 8.29428109296841 C-34.9728830148502 7.951692045880302, -35.16582557161486 7.609102998792193, -35.283245151968 7.400612643853366 M-34.779940458085534 8.29428109296841 C-34.94001438064203 8.010053634227013, -35.10008830319854 7.725826175485616, -35.283245151968 7.400612643853366 M-35.283245151968 7.400612643853366 C-35.41131132603449 7.134680493227142, -35.53937750010098 6.868748342600918, -35.728258218252996 6.476533489958307 M-35.283245151968 7.400612643853366 C-35.41175901028135 7.133750867309639, -35.54027286859469 6.866889090765913, -35.728258218252996 6.476533489958307 M-35.728258218252996 6.476533489958307 C-35.85564483561642 6.161886082217962, -35.98303145297984 5.847238674477618, -36.113151002796165 5.525840870740931 M-35.728258218252996 6.476533489958307 C-35.8058991957625 6.284758774423658, -35.883540173271996 6.092984058889008, -36.113151002796165 5.525840870740931 M-36.113151002796165 5.525840870740931 C-36.19080741700588 5.2919521240106056, -36.26846383121559 5.05806337728028, -36.43634189858657 4.552441386096519 M-36.113151002796165 5.525840870740931 C-36.186003305063124 5.306421343750896, -36.258855607330084 5.087001816760861, -36.43634189858657 4.552441386096519 M-36.43634189858657 4.552441386096519 C-36.50986129461524 4.272080065531383, -36.58338069064392 3.9917187449662475, -36.696502844909176 3.5603349433010343 M-36.43634189858657 4.552441386096519 C-36.50376203890506 4.295339170988456, -36.571182179223555 4.038236955880392, -36.696502844909176 3.5603349433010343 M-36.696502844909176 3.5603349433010343 C-36.75560649042416 3.2568502151415357, -36.81471013593913 2.9533654869820376, -36.892564784631205 2.5535983205340753 M-36.696502844909176 3.5603349433010343 C-36.73576388679329 3.3587377910502236, -36.77502492867742 3.1571406387994125, -36.892564784631205 2.5535983205340753 M-36.892564784631205 2.5535983205340753 C-36.933045682446746 2.239636470934182, -36.97352658026229 1.9256746213342888, -37.02372205718717 1.5363684145229202 M-36.892564784631205 2.5535983205340753 C-36.94485111668294 2.148075854244937, -36.99713744873467 1.7425533879557986, -37.02372205718717 1.5363684145229202 M-37.02372205718717 1.5363684145229202 C-37.03875976616505 1.3021439589722048, -37.05379747514293 1.0679195034214897, -37.089435709211 0.5128252411464846 M-37.02372205718717 1.5363684145229202 C-37.048197228036834 1.1551478725370523, -37.0726723988865 0.7739273305511843, -37.089435709211 0.5128252411464846 M-37.089435709211 0.5128252411464846 C-37.089435709211 0.1641175713328269, -37.089435709211 -0.18459009848083086, -37.089435709211 -0.5128252411464769 M-37.089435709211 0.5128252411464846 C-37.089435709211 0.11276950159358945, -37.089435709211 -0.28728623795930575, -37.089435709211 -0.5128252411464769 M-37.089435709211 -0.5128252411464769 C-37.06389153665742 -0.9106963475534569, -37.03834736410384 -1.3085674539604368, -37.02372205718717 -1.5363684145228982 M-37.089435709211 -0.5128252411464769 C-37.067717948943994 -0.8510968875657706, -37.04600018867698 -1.1893685339850644, -37.02372205718717 -1.5363684145228982 M-37.02372205718717 -1.5363684145228982 C-36.974864347043344 -1.915299166352297, -36.926006636899515 -2.2942299181816956, -36.892564784631205 -2.5535983205340678 M-37.02372205718717 -1.5363684145228982 C-36.97498213456318 -1.914385629608228, -36.92624221193919 -2.292402844693558, -36.892564784631205 -2.5535983205340678 M-36.892564784631205 -2.5535983205340678 C-36.838171511265024 -2.832896283247016, -36.78377823789884 -3.1121942459599645, -36.696502844909176 -3.5603349433010267 M-36.892564784631205 -2.5535983205340678 C-36.8232806299597 -2.9093578115609624, -36.7539964752882 -3.265117302587857, -36.696502844909176 -3.5603349433010267 M-36.696502844909176 -3.5603349433010267 C-36.62409095750768 -3.8364728534734405, -36.551679070106196 -4.112610763645854, -36.436341898586576 -4.552441386096511 M-36.696502844909176 -3.5603349433010267 C-36.63594696869067 -3.7912607444049735, -36.57539109247216 -4.02218654550892, -36.436341898586576 -4.552441386096511 M-36.436341898586576 -4.552441386096511 C-36.321631364901556 -4.8979312369142685, -36.206920831216536 -5.243421087732025, -36.11315100279617 -5.525840870740911 M-36.436341898586576 -4.552441386096511 C-36.330517865834686 -4.871166511975325, -36.224693833082796 -5.189891637854139, -36.11315100279617 -5.525840870740911 M-36.11315100279617 -5.525840870740911 C-35.97478515373608 -5.8676071930410485, -35.836419304675985 -6.209373515341186, -35.728258218253 -6.476533489958299 M-36.11315100279617 -5.525840870740911 C-35.96914311375812 -5.881543140868021, -35.82513522472007 -6.237245410995131, -35.728258218253 -6.476533489958299 M-35.728258218253 -6.476533489958299 C-35.56188576306872 -6.822009452948732, -35.395513307884436 -7.167485415939167, -35.283245151968 -7.400612643853359 M-35.728258218253 -6.476533489958299 C-35.57973320031865 -6.784948867625268, -35.4312081823843 -7.093364245292237, -35.283245151968 -7.400612643853359 M-35.283245151968 -7.400612643853359 C-35.107434397543315 -7.712782441103744, -34.93162364311863 -8.024952238354128, -34.779940458085534 -8.294281092968404 M-35.283245151968 -7.400612643853359 C-35.12479542159581 -7.681956184904221, -34.966345691223616 -7.963299725955083, -34.779940458085534 -8.294281092968404 M-34.779940458085534 -8.294281092968404 C-34.64468862460126 -8.502064229402853, -34.50943679111698 -8.7098473658373, -34.220412323551294 -9.153866561954715 M-34.779940458085534 -8.294281092968404 C-34.59113945064453 -8.584330140566971, -34.40233844320354 -8.874379188165536, -34.220412323551294 -9.153866561954715 M-34.220412323551294 -9.153866561954715 C-34.04461694163486 -9.389416358433978, -33.86882155971843 -9.624966154913242, -33.60695996948848 -9.975836829739734 M-34.220412323551294 -9.153866561954715 C-34.07829214137094 -9.344294658661441, -33.93617195919058 -9.534722755368167, -33.60695996948848 -9.975836829739734 M-33.60695996948848 -9.975836829739734 C-33.34619177496532 -10.282149989157247, -33.08542358044217 -10.588463148574762, -32.942104203205055 -10.756814244181063 M-33.60695996948848 -9.975836829739734 C-33.43537681022301 -10.177388171971296, -33.26379365095755 -10.378939514202857, -32.942104203205055 -10.756814244181063 M-32.942104203205055 -10.756814244181063 C-32.73955665962276 -10.965961212392378, -32.53700911604046 -11.175108180603694, -32.22857705965579 -11.493589601563633 M-32.942104203205055 -10.756814244181063 C-32.66458608957772 -11.043374481162155, -32.38706797595038 -11.32993471814325, -32.22857705965579 -11.493589601563633 M-32.22857705965579 -11.493589601563633 C-32.039861933526986 -11.664975685985194, -31.851146807398177 -11.836361770406755, -31.469310574924627 -12.18313533390614 M-32.22857705965579 -11.493589601563633 C-32.00025721033715 -11.700943647702646, -31.771937361018512 -11.90829769384166, -31.469310574924627 -12.18313533390614 M-31.469310574924627 -12.18313533390614 C-31.293458236427497 -12.323372894230342, -31.117605897930368 -12.463610454554546, -30.667424737859463 -12.822617949887302 M-31.469310574924627 -12.18313533390614 C-31.292507033702872 -12.324131453090663, -31.115703492481117 -12.465127572275186, -30.667424737859463 -12.822617949887302 M-30.667424737859463 -12.822617949887302 C-30.43551950141752 -12.984385003813316, -30.20361426497558 -13.146152057739329, -29.826214669368788 -13.409409678269444 M-30.667424737859463 -12.822617949887302 C-30.386556895704402 -13.018539198001749, -30.105689053549337 -13.214460446116194, -29.826214669368788 -13.409409678269444 M-29.826214669368788 -13.409409678269444 C-29.64708133196871 -13.51800136010571, -29.467947994568632 -13.626593041941977, -28.949137082063007 -13.941099265974229 M-29.826214669368788 -13.409409678269444 C-29.631949692610966 -13.527174248807759, -29.437684715853145 -13.644938819346073, -28.949137082063007 -13.941099265974229 M-28.949137082063007 -13.941099265974229 C-28.6334528542641 -14.105791525411522, -28.317768626465188 -14.270483784848816, -28.039796075880936 -14.415501886438705 M-28.949137082063007 -13.941099265974229 C-28.63366515104658 -14.105680770316084, -28.31819322003015 -14.270262274657942, -28.039796075880936 -14.415501886438705 M-28.039796075880936 -14.415501886438705 C-27.814241631187617 -14.51534814826956, -27.588687186494298 -14.615194410100417, -27.101928328069995 -14.830668117536344 M-28.039796075880936 -14.415501886438705 C-27.66731955387712 -14.580386193606344, -27.294843031873302 -14.745270500773984, -27.101928328069995 -14.830668117536344 M-27.101928328069995 -14.830668117536344 C-26.85270053981875 -14.922386247449223, -26.603472751567498 -15.014104377362102, -26.13938773837794 -15.184891952170695 M-27.101928328069995 -14.830668117536344 C-26.820192443555385 -14.934349527375689, -26.538456559040775 -15.038030937215032, -26.13938773837794 -15.184891952170695 M-26.13938773837794 -15.184891952170695 C-25.88711918221216 -15.259763935456025, -25.634850626046383 -15.334635918741355, -25.156129592552134 -15.476717808624466 M-26.13938773837794 -15.184891952170695 C-25.79433736007014 -15.287301093246054, -25.449286981762345 -15.389710234321413, -25.156129592552134 -15.476717808624466 M-25.156129592552134 -15.476717808624466 C-24.878099901300658 -15.540176271339323, -24.600070210049182 -15.603634734054182, -24.156194309221963 -15.704946511857043 M-25.156129592552134 -15.476717808624466 C-24.835664605885345 -15.549861850601687, -24.51519961921856 -15.623005892578908, -24.156194309221963 -15.704946511857043 M-24.156194309221963 -15.704946511857043 C-23.8156675448347 -15.760000238298678, -23.475140780447436 -15.815053964740313, -23.143690836952107 -15.868640221171937 M-24.156194309221963 -15.704946511857043 C-23.84452630088773 -15.75533457842302, -23.532858292553495 -15.805722644988997, -23.143690836952107 -15.868640221171937 M-23.143690836952107 -15.868640221171937 C-22.866281220228704 -15.895401593263367, -22.588871603505304 -15.922162965354797, -22.12277976969141 -15.967126284005381 M-23.143690836952107 -15.868640221171937 C-22.79542861279585 -15.902236659089688, -22.447166388639587 -15.935833097007437, -22.12277976969141 -15.967126284005381 M-22.12277976969141 -15.967126284005381 C-21.889265024612147 -15.974614647371196, -21.65575027953289 -15.98210301073701, -21.097656250000004 -16 M-22.12277976969141 -15.967126284005381 C-21.89023446361628 -15.974583559349231, -21.65768915754115 -15.982040834693082, -21.097656250000004 -16 M-21.097656250000004 -16 C-21.097656250000004 -16, -21.09765625 -16, -21.09765625 -16 M-21.097656250000004 -16 C-21.097656250000004 -16, -21.09765625 -16, -21.09765625 -16" stroke="#ccc" stroke-width="1.3" fill="none" stroke-dasharray="0 0" style=""/></g><g class="label" style="" transform="translate(0, -8.5)"><rect/><g><rect class="background" style="stroke: none"/><text y="-10.1" style=""><tspan class="text-outer-tspan" x="0" y="-0.1em" dy="1.1em"><tspan font-style="normal" class="text-inner-tspan" font-weight="normal">START</tspan></tspan></text></g></g></g><g class="node default" id="flowchart-Q1-1" transform="translate(253.6265640258789, 176.5218734741211)"><polygon points="86.5218734741211,0 173.0437469482422,-86.5218734741211 86.5218734741211,-173.0437469482422 0,-86.5218734741211" class="label-container" transform="translate(-86.0218734741211, 86.5218734741211)"/><g class="label" style="" transform="translate(0, -26.099998474121094)"><rect/><g><rect class="background" style="stroke: none"/><text y="-10.1" style=""><tspan class="text-outer-tspan" x="0" y="-0.1em" dy="1.1em"><tspan font-style="normal" class="text-inner-tspan" font-weight="normal">Regulated</tspan></tspan><tspan class="text-outer-tspan" x="0" y="1em" dy="1.1em"><tspan font-style="normal" class="text-inner-tspan" font-weight="normal">approval</tspan></tspan><tspan class="text-outer-tspan" x="0" y="2.1em" dy="1.1em"><tspan font-style="normal" class="text-inner-tspan" font-weight="normal">before</tspan><tspan font-style="normal" class="text-inner-tspan" font-weight="normal"> prod?</tspan></tspan></text></g></g></g><g class="node default" id="flowchart-Q2-2" transform="translate(319.1480484008789, 430.0867156982422)"><polygon points="96.04296875,0 192.0859375,-96.04296875 96.04296875,-192.0859375 0,-96.04296875" class="label-container" transform="translate(-95.54296875, 96.04296875)"/><g class="label" style="" transform="translate(0, -8.5)"><rect/><g><rect class="background" style="stroke: none"/><text y="-10.1" style=""><tspan class="text-outer-tspan" x="0" y="-0.1em" dy="1.1em"><tspan font-style="normal" class="text-inner-tspan" font-weight="normal">normal</tspan><tspan font-style="normal" class="text-inner-tspan" font-weight="normal"> change</tspan><tspan font-style="normal" class="text-inner-tspan" font-weight="normal"> ops?</tspan></tspan></text></g></g></g><g class="node default" id="flowchart-Q3-3" transform="translate(393.8941421508789, 693.9218673706055)"><polygon points="96.79218673706055,0 193.5843734741211,-96.79218673706055 96.79218673706055,-193.5843734741211 0,-96.79218673706055" class="label-container" transform="translate(-96.29218673706055, 96.79218673706055)"/><g class="label" style="" transform="translate(0, -17.299999237060547)"><rect/><g><rect class="background" style="stroke: none"/><text y="-10.1" style=""><tspan class="text-outer-tspan" x="0" y="-0.1em" dy="1.1em"><tspan font-style="normal" class="text-inner-tspan" font-weight="normal">Automated</tspan><tspan font-style="normal" class="text-inner-tspan" font-weight="normal"> testing</tspan></tspan><tspan class="text-outer-tspan" x="0" y="1em" dy="1.1em"><tspan font-style="normal" class="text-inner-tspan" font-weight="normal">&amp;gt;mid?</tspan></tspan></text></g></g></g><g class="node default" id="flowchart-Q4-4" transform="translate(515.6378936767578, 940.7093658447266)"><polygon points="78.99531173706055,0 157.9906234741211,-78.99531173706055 78.99531173706055,-157.9906234741211 0,-78.99531173706055" class="label-container" transform="translate(-78.49531173706055, 78.99531173706055)"/><g class="label" style="" transform="translate(0, -17.299999237060547)"><rect/><g><rect class="background" style="stroke: none"/><text y="-10.1" style=""><tspan class="text-outer-tspan" x="0" y="-0.1em" dy="1.1em"><tspan font-style="normal" class="text-inner-tspan" font-weight="normal">Feature</tspan><tspan font-style="normal" class="text-inner-tspan" font-weight="normal"> flags</tspan></tspan><tspan class="text-outer-tspan" x="0" y="1em" dy="1.1em"><tspan font-style="normal" class="text-inner-tspan" font-weight="normal">available?</tspan></tspan></text></g></g></g><g class="node default" id="flowchart-RA-5" transform="translate(93.140625, 1114.2046813964844)"><rect class="basic label-container" style="" x="-85.140625" y="-23.5" width="170.28125" height="47"/><g class="label" style="" transform="translate(0, -8.5)"><rect/><g><rect class="background" style="stroke: none"/><text y="-10.1" style=""><tspan class="text-outer-tspan" x="0" y="-0.1em" dy="1.1em"><tspan font-style="normal" class="text-inner-tspan" font-weight="normal">Use</tspan><tspan font-style="normal" class="text-inner-tspan" font-weight="normal"> RA</tspan><tspan font-style="normal" class="text-inner-tspan" font-weight="normal"> Pattern</tspan></tspan></text></g></g></g><g class="node default" id="flowchart-RANote-6" transform="translate(272.150390625, 940.7093658447266)"><rect class="basic label-container" style="" x="-114.4921875" y="-32.29999923706055" width="228.984375" height="64.5999984741211"/><g class="label" style="" transform="translate(0, -17.299999237060547)"><rect/><g><rect class="background" style="stroke: none"/><text y="-10.1" style=""><tspan class="text-outer-tspan" x="0" y="-0.1em" dy="1.1em"><tspan font-style="normal" class="text-inner-tspan" font-weight="normal">Use</tspan><tspan font-style="normal" class="text-inner-tspan" font-weight="normal"> RA</tspan><tspan font-style="normal" class="text-inner-tspan" font-weight="normal"> Pattern</tspan></tspan><tspan class="text-outer-tspan" x="0" y="1em" dy="1.1em"><tspan font-style="normal" class="text-inner-tspan" font-weight="normal">until</tspan><tspan font-style="normal" class="text-inner-tspan" font-weight="normal"> coverage</tspan><tspan font-style="normal" class="text-inner-tspan" font-weight="normal"> improves</tspan></tspan></text></g></g></g><g class="node default" id="flowchart-CDe-7" transform="translate(541.6417999267578, 1114.2046813964844)"><rect class="basic label-container" style="" x="-90.46875" y="-23.5" width="180.9375" height="47"/><g class="label" style="" transform="translate(0, -8.5)"><rect/><g><rect class="background" style="stroke: none"/><text y="-10.1" style=""><tspan class="text-outer-tspan" x="0" y="-0.1em" dy="1.1em"><tspan font-style="normal" class="text-inner-tspan" font-weight="normal">Use</tspan><tspan font-style="normal" class="text-inner-tspan" font-weight="normal"> CDe</tspan><tspan font-style="normal" class="text-inner-tspan" font-weight="normal"> Pattern</tspan></tspan></text></g></g></g></g></g></g></svg>