<svg id="my-svg" width="100%" xmlns="http://www.w3.org/2000/svg" xmlns:xlink="http://www.w3.org/1999/xlink" class="flowchart" style="max-width: 3091.09px; background-color: transparent;" viewBox="0 0 3091.0859375 588.5" role="graphics-document document" aria-roledescription="flowchart-v2"><style>#my-svg{font-family:"trebuchet ms",verdana,arial,sans-serif;font-size:16px;fill:#ccc;}@keyframes edge-animation-frame{from{stroke-dashoffset:0;}}@keyframes dash{to{stroke-dashoffset:0;}}#my-svg .edge-animation-slow{stroke-dasharray:9,5!important;stroke-dashoffset:900;animation:dash 50s linear infinite;stroke-linecap:round;}#my-svg .edge-animation-fast{stroke-dasharray:9,5!important;stroke-dashoffset:900;animation:dash 20s linear infinite;stroke-linecap:round;}#my-svg .error-icon{fill:#a44141;}#my-svg .error-text{fill:#ddd;stroke:#ddd;}#my-svg .edge-thickness-normal{stroke-width:1px;}#my-svg .edge-thickness-thick{stroke-width:3.5px;}#my-svg .edge-pattern-solid{stroke-dasharray:0;}#my-svg .edge-thickness-invisible{stroke-width:0;fill:none;}#my-svg .edge-pattern-dashed{stroke-dasharray:3;}#my-svg .edge-pattern-dotted{stroke-dasharray:2;}#my-svg .marker{fill:lightgrey;stroke:lightgrey;}#my-svg .marker.cross{stroke:lightgrey;}#my-svg svg{font-family:"trebuchet ms",verdana,arial,sans-serif;font-size:16px;}#my-svg p{margin:0;}#my-svg .label{font-family:"trebuchet ms",verdana,arial,sans-serif;color:#ccc;}#my-svg .cluster-label text{fill:#F9FFFE;}#my-svg .cluster-label span{color:#F9FFFE;}#my-svg .cluster-label span p{background-color:transparent;}#my-svg .label text,#my-svg span{fill:#ccc;color:#ccc;}#my-svg .node rect,#my-svg .node circle,#my-svg .node ellipse,#my-svg .node polygon,#my-svg .node path{fill:#1f2020;stroke:#ccc;stroke-width:1px;}#my-svg .rough-node .label text,#my-svg .node .label text,#my-svg .image-shape .label,#my-svg .icon-shape .label{text-anchor:middle;}#my-svg .node .katex path{fill:#000;stroke:#000;stroke-width:1px;}#my-svg .rough-node .label,#my-svg .node .label,#my-svg .image-shape .label,#my-svg .icon-shape .label{text-align:center;}#my-svg .node.clickable{cursor:pointer;}#my-svg .root .anchor path{fill:lightgrey!important;stroke-width:0;stroke:lightgrey;}#my-svg .arrowheadPath{fill:lightgrey;}#my-svg .edgePath .path{stroke:lightgrey;stroke-width:2.0px;}#my-svg .flowchart-link{stroke:lightgrey;fill:none;}#my-svg .edgeLabel{background-color:hsl(0, 0%, 34.4117647059%);text-align:center;}#my-svg .edgeLabel p{background-color:hsl(0, 0%, 34.4117647059%);}#my-svg .edgeLabel rect{opacity:0.5;background-color:hsl(0, 0%, 34.4117647059%);fill:hsl(0, 0%, 34.4117647059%);}#my-svg .labelBkg{background-color:rgba(87.75, 87.75, 87.75, 0.5);}#my-svg .cluster rect{fill:hsl(180, 1.5873015873%, 28.3529411765%);stroke:rgba(255, 255, 255, 0.25);stroke-width:1px;}#my-svg .cluster text{fill:#F9FFFE;}#my-svg .cluster span{color:#F9FFFE;}#my-svg div.mermaidTooltip{position:absolute;text-align:center;max-width:200px;padding:2px;font-family:"trebuchet ms",verdana,arial,sans-serif;font-size:12px;background:hsl(20, 1.5873015873%, 12.3529411765%);border:1px solid rgba(255, 255, 255, 0.25);border-radius:2px;pointer-events:none;z-index:100;}#my-svg .flowchartTitleText{text-anchor:middle;font-size:18px;fill:#ccc;}#my-svg rect.text{fill:none;stroke-width:0;}#my-svg .icon-shape,#my-svg .image-shape{background-color:hsl(0, 0%, 34.4117647059%);text-align:center;}#my-svg .icon-shape p,#my-svg .image-shape p{background-color:hsl(0, 0%, 34.4117647059%);padding:2px;}#my-svg .icon-shape rect,#my-svg .image-shape rect{opacity:0.5;background-color:hsl(0, 0%, 34.4117647059%);fill:hsl(0, 0%, 34.4117647059%);}#my-svg .label-icon{display:inline-block;height:1em;overflow:visible;vertical-align:-0.125em;}#my-svg .node .label-icon path{fill:currentColor;stroke:revert;stroke-width:revert;}#my-svg :root{--mermaid-font-family:"trebuchet ms",verdana,arial,sans-serif;}</style><g><marker id="my-svg_flowchart-v2-pointEnd" class="marker flowchart-v2" viewBox="0 0 10 10" refX="5" refY="5" markerUnits="userSpaceOnUse" markerWidth="8" markerHeight="8" orient="auto"><path d="M 0 0 L 10 5 L 0 10 z" class="arrowMarkerPath" style="stroke-width: 1; stroke-dasharray: 1, 0;"/></marker><marker id="my-svg_flowchart-v2-pointStart" class="marker flowchart-v2" viewBox="0 0 10 10" refX="4.5" refY="5" markerUnits="userSpaceOnUse" markerWidth="8" markerHeight="8" orient="auto"><path d="M 0 5 L 10 10 L 10 0 z" class="arrowMarkerPath" style="stroke-width: 1; stroke-dasharray: 1, 0;"/></marker><marker id="my-svg_flowchart-v2-circleEnd" class="marker flowchart-v2" viewBox="0 0 10 10" refX="11" refY="5" markerUnits="userSpaceOnUse" markerWidth="11" markerHeight="11" orient="auto"><circle cx="5" cy="5" r="5" class="arrowMarkerPath" style="stroke-width: 1; stroke-dasharray: 1, 0;"/></marker><marker id="my-svg_flowchart-v2-circleStart" class="marker flowchart-v2" viewBox="0 0 10 10" refX="-1" refY="5" markerUnits="userSpaceOnUse" markerWidth="11" markerHeight="11" orient="auto"><circle cx="5" cy="5" r="5" class="arrowMarkerPath" style="stroke-width: 1; stroke-dasharray: 1, 0;"/></marker><marker id="my-svg_flowchart-v2-crossEnd" class="marker cross flowchart-v2" viewBox="0 0 11 11" refX="12" refY="5.2" markerUnits="userSpaceOnUse" markerWidth="11" markerHeight="11" orient="auto"><path d="M 1,1 l 9,9 M 10,1 l -9,9" class="arrowMarkerPath" style="stroke-width: 2; stroke-dasharray: 1, 0;"/></marker><marker id="my-svg_flowchart-v2-crossStart" class="marker cross flowchart-v2" viewBox="0 0 11 11" refX="-1" refY="5.2" markerUnits="userSpaceOnUse" markerWidth="11" markerHeight="11" orient="auto"><path d="M 1,1 l 9,9 M 10,1 l -9,9" class="arrowMarkerPath" style="stroke-width: 2; stroke-dasharray: 1, 0;"/></marker><g class="root"><g class="clusters"><g class="cluster" id="Release" data-look="classic"><rect style="" x="2018.1796875" y="168.75" width="1064.90625" height="406.5"/><g class="cluster-label" transform="translate(2497.71875, 168.75)"><g><rect class="background" style="stroke: none"/><text y="-10.1" style=""><tspan class="text-outer-tspan" x="0" y="-0.1em" dy="1.1em"><tspan font-style="normal" class="text-inner-tspan" font-weight="normal">Release</tspan><tspan font-style="normal" class="text-inner-tspan" font-weight="normal"> (8-12)</tspan></tspan></text></g></g></g><g class="cluster" id="Development" data-look="classic"><rect style="" x="8" y="8" width="1960.1796875" height="572.5"/><g class="cluster-label" transform="translate(921.83203125, 8)"><g><rect class="background" style="stroke: none"/><text y="-10.1" style=""><tspan class="text-outer-tspan" x="0" y="-0.1em" dy="1.1em"><tspan font-style="normal" class="text-inner-tspan" font-weight="normal">Development</tspan><tspan font-style="normal" class="text-inner-tspan" font-weight="normal"> (1-7)</tspan></tspan></text></g></g></g></g><g class="edgePaths"><path d="M118.374,274.75L138.818,236.833C159.262,198.917,200.151,123.083,230.373,86.486C260.595,49.888,280.152,52.526,289.93,53.845L299.708,55.165" id="L_S1_S2_0" class="edge-thickness-normal edge-pattern-solid edge-thickness-normal edge-pattern-solid flowchart-link" style=";" data-edge="true" data-et="edge" data-id="L_S1_S2_0" data-points="W3sieCI6MTE4LjM3NDAxOTU0NjgxMjc1LCJ5IjoyNzQuNzV9LHsieCI6MjQxLjAzOTA2MjUsInkiOjQ3LjI1fSx7IngiOjMwMy42NzE4NzUsInkiOjU1LjY5OTM0MzAwNTc0ODd9XQ==" marker-end="url(#my-svg_flowchart-v2-pointEnd)"/><path d="M463.797,66.5L474.236,66.5C484.674,66.5,505.552,66.5,525.779,68.658C546.005,70.815,565.581,75.131,575.369,77.288L585.156,79.446" id="L_S2_S3_0" class="edge-thickness-normal edge-pattern-solid edge-thickness-normal edge-pattern-solid flowchart-link" style=";" data-edge="true" data-et="edge" data-id="L_S2_S3_0" data-points="W3sieCI6NDYzLjc5Njg3NSwieSI6NjYuNX0seyJ4Ijo1MjYuNDI5Njg3NSwieSI6NjYuNX0seyJ4Ijo1ODkuMDYyNSwieSI6ODAuMzA3MjMzNDI2NTE3NTd9XQ==" marker-end="url(#my-svg_flowchart-v2-pointEnd)"/><path d="M776.797,101L787.236,101C797.674,101,818.552,101,838.779,103.213C859.007,105.427,878.584,109.853,888.372,112.067L898.161,114.28" id="L_S3_S4_0" class="edge-thickness-normal edge-pattern-solid edge-thickness-normal edge-pattern-solid flowchart-link" style=";" data-edge="true" data-et="edge" data-id="L_S3_S4_0" data-points="W3sieCI6Nzc2Ljc5Njg3NSwieSI6MTAxfSx7IngiOjgzOS40Mjk2ODc1LCJ5IjoxMDF9LHsieCI6OTAyLjA2MjUsInkiOjExNS4xNjIxNzIzNjM4MTIwNn1d" marker-end="url(#my-svg_flowchart-v2-pointEnd)"/><path d="M1035.516,130.25L1045.954,130.25C1056.393,130.25,1077.271,130.25,1097.493,132.039C1117.714,133.829,1137.28,137.407,1147.064,139.197L1156.847,140.986" id="L_S4_S5_0" class="edge-thickness-normal edge-pattern-solid edge-thickness-normal edge-pattern-solid flowchart-link" style=";" data-edge="true" data-et="edge" data-id="L_S4_S5_0" data-points="W3sieCI6MTAzNS41MTU2MjUsInkiOjEzMC4yNX0seyJ4IjoxMDk4LjE0ODQzNzUsInkiOjEzMC4yNX0seyJ4IjoxMTYwLjc4MTI1LCJ5IjoxNDEuNzA1OTM0NDM5MDQzNDZ9XQ==" marker-end="url(#my-svg_flowchart-v2-pointEnd)"/><path d="M1355.352,159.5L1365.79,159.5C1376.229,159.5,1397.107,159.5,1417.33,161.378C1437.553,163.257,1457.121,167.013,1466.905,168.892L1476.689,170.77" id="L_S5_S6_0" class="edge-thickness-normal edge-pattern-solid edge-thickness-normal edge-pattern-solid flowchart-link" style=";" data-edge="true" data-et="edge" data-id="L_S5_S6_0" data-points="W3sieCI6MTM1NS4zNTE1NjI1LCJ5IjoxNTkuNX0seyJ4IjoxNDE3Ljk4NDM3NSwieSI6MTU5LjV9LHsieCI6MTQ4MC42MTcxODc1LCJ5IjoxNzEuNTI0MjY2NzQxODcyNjJ9XQ==" marker-end="url(#my-svg_flowchart-v2-pointEnd)"/><path d="M1660.07,188.75L1670.509,188.75C1680.948,188.75,1701.826,188.75,1722.05,190.772C1742.275,192.794,1761.847,196.838,1771.633,198.861L1781.419,200.883" id="L_S6_S7_0" class="edge-thickness-normal edge-pattern-solid edge-thickness-normal edge-pattern-solid flowchart-link" style=";" data-edge="true" data-et="edge" data-id="L_S6_S7_0" data-points="W3sieCI6MTY2MC4wNzAzMTI1LCJ5IjoxODguNzV9LHsieCI6MTcyMi43MDMxMjUsInkiOjE4OC43NX0seyJ4IjoxNzg1LjMzNTkzNzUsInkiOjIwMS42OTIwNjM1Nzk2Njc3NX1d" marker-end="url(#my-svg_flowchart-v2-pointEnd)"/><path d="M2218.008,247.25L2222.174,247.25C2226.341,247.25,2234.674,247.25,2242.358,248.063C2250.042,248.875,2257.076,250.5,2260.593,251.313L2264.11,252.126" id="L_S8_S9_0" class="edge-thickness-normal edge-pattern-solid edge-thickness-normal edge-pattern-solid flowchart-link" style=";" data-edge="true" data-et="edge" data-id="L_S8_S9_0" data-points="W3sieCI6MjIxOC4wMDc4MTI1LCJ5IjoyNDcuMjV9LHsieCI6MjI0My4wMDc4MTI1LCJ5IjoyNDcuMjV9LHsieCI6MjI2OC4wMDc4MTI1LCJ5IjoyNTMuMDI1OTk1MDYzMjUyMDh9XQ==" marker-end="url(#my-svg_flowchart-v2-pointEnd)"/><path d="M2471.211,276.5L2475.378,276.5C2479.544,276.5,2487.878,276.5,2495.566,277.417C2503.254,278.333,2510.297,280.167,2513.818,281.083L2517.34,282" id="L_S9_S10_0" class="edge-thickness-normal edge-pattern-solid edge-thickness-normal edge-pattern-solid flowchart-link" style=";" data-edge="true" data-et="edge" data-id="L_S9_S10_0" data-points="W3sieCI6MjQ3MS4yMTA5Mzc1LCJ5IjoyNzYuNX0seyJ4IjoyNDk2LjIxMDkzNzUsInkiOjI3Ni41fSx7IngiOjI1MjEuMjEwOTM3NSwieSI6MjgzLjAwNzY4MjY4MDk0Mjc2fV0=" marker-end="url(#my-svg_flowchart-v2-pointEnd)"/><path d="M2695.945,305.75L2700.112,305.75C2704.279,305.75,2712.612,305.75,2720.316,306.996C2728.021,308.241,2735.097,310.733,2738.635,311.979L2742.172,313.224" id="L_S10_S11_0" class="edge-thickness-normal edge-pattern-solid edge-thickness-normal edge-pattern-solid flowchart-link" style=";" data-edge="true" data-et="edge" data-id="L_S10_S11_0" data-points="W3sieCI6MjY5NS45NDUzMTI1LCJ5IjozMDUuNzV9LHsieCI6MjcyMC45NDUzMTI1LCJ5IjozMDUuNzV9LHsieCI6Mjc0NS45NDUzMTI1LCJ5IjozMTQuNTUyNzgzNzg2MzI1NTZ9XQ==" marker-end="url(#my-svg_flowchart-v2-pointEnd)"/><path d="M2862.086,335L2866.253,335C2870.419,335,2878.753,335,2886.447,336.053C2894.142,337.106,2901.197,339.212,2904.725,340.265L2908.253,341.318" id="L_S11_S12_0" class="edge-thickness-normal edge-pattern-solid edge-thickness-normal edge-pattern-solid flowchart-link" style=";" data-edge="true" data-et="edge" data-id="L_S11_S12_0" data-points="W3sieCI6Mjg2Mi4wODU5Mzc1LCJ5IjozMzV9LHsieCI6Mjg4Ny4wODU5Mzc1LCJ5IjozMzV9LHsieCI6MjkxMi4wODU5Mzc1LCJ5IjozNDIuNDYxNzM0NjkzODc3NTN9XQ==" marker-end="url(#my-svg_flowchart-v2-pointEnd)"/><path d="M1943.18,218L1947.346,218C1951.513,218,1959.846,218,1968.18,218C1976.513,218,1984.846,218,1993.18,218C2001.513,218,2009.846,218,2017.535,218.916C2025.223,219.833,2032.266,221.665,2035.787,222.581L2039.309,223.498" id="L_S7_S8_0" class="edge-thickness-normal edge-pattern-solid edge-thickness-normal edge-pattern-solid flowchart-link" style=";" data-edge="true" data-et="edge" data-id="L_S7_S8_0" data-points="W3sieCI6MTk0My4xNzk2ODc1LCJ5IjoyMTh9LHsieCI6MTk2OC4xNzk2ODc1LCJ5IjoyMTh9LHsieCI6MTk5My4xNzk2ODc1LCJ5IjoyMTh9LHsieCI6MjAxOC4xNzk2ODc1LCJ5IjoyMTh9LHsieCI6MjA0My4xNzk2ODc1LCJ5IjoyMjQuNTA0OTY5MDczNTk3OX1d" marker-end="url(#my-svg_flowchart-v2-pointEnd)"/><path d="M2971.677,387.75L2957.578,412.458C2943.48,437.167,2915.283,486.583,2887.339,511.292C2859.396,536,2831.706,536,2804.016,536C2776.326,536,2748.635,536,2716.063,536C2683.49,536,2646.034,536,2608.578,536C2571.122,536,2533.667,536,2493.839,536C2454.01,536,2411.81,536,2369.609,536C2327.409,536,2285.208,536,2245.372,536C2205.536,536,2168.065,536,2130.594,536C2093.122,536,2055.651,536,2032.749,536C2009.846,536,2001.513,536,1993.18,536C1984.846,536,1976.513,536,1955.026,536C1933.539,536,1898.898,536,1857.986,536C1817.073,536,1769.888,536,1720.902,536C1671.917,536,1621.13,536,1570.344,536C1519.557,536,1468.771,536,1416.725,536C1364.678,536,1311.372,536,1258.066,536C1204.76,536,1151.454,536,1103.242,536C1055.029,536,1011.909,536,968.789,536C925.669,536,882.549,536,834.906,536C787.263,536,735.096,536,682.93,536C630.763,536,578.596,536,528.73,536C478.865,536,431.299,536,383.734,536C336.169,536,288.604,536,244.825,500.871C201.046,465.742,161.052,395.484,141.056,360.355L121.059,325.226" id="L_S12_S1_0" class="edge-thickness-normal edge-pattern-dotted edge-thickness-normal edge-pattern-solid flowchart-link" style=";" data-edge="true" data-et="edge" data-id="L_S12_S1_0" data-points="W3sieCI6Mjk3MS42NzY5MTI3NTQ3MzEsInkiOjM4Ny43NX0seyJ4IjoyODg3LjA4NTkzNzUsInkiOjUzNn0seyJ4IjoyODA0LjAxNTYyNSwieSI6NTM2fSx7IngiOjI3MjAuOTQ1MzEyNSwieSI6NTM2fSx7IngiOjI2MDguNTc4MTI1LCJ5Ijo1MzZ9LHsieCI6MjQ5Ni4yMTA5Mzc1LCJ5Ijo1MzZ9LHsieCI6MjM2OS42MDkzNzUsInkiOjUzNn0seyJ4IjoyMjQzLjAwNzgxMjUsInkiOjUzNn0seyJ4IjoyMTMwLjU5Mzc1LCJ5Ijo1MzZ9LHsieCI6MjAxOC4xNzk2ODc1LCJ5Ijo1MzZ9LHsieCI6MTk5My4xNzk2ODc1LCJ5Ijo1MzZ9LHsieCI6MTk2OC4xNzk2ODc1LCJ5Ijo1MzZ9LHsieCI6MTg2NC4yNTc4MTI1LCJ5Ijo1MzZ9LHsieCI6MTcyMi43MDMxMjUsInkiOjUzNn0seyJ4IjoxNTcwLjM0Mzc1LCJ5Ijo1MzZ9LHsieCI6MTQxNy45ODQzNzUsInkiOjUzNn0seyJ4IjoxMjU4LjA2NjQwNjI1LCJ5Ijo1MzZ9LHsieCI6MTA5OC4xNDg0Mzc1LCJ5Ijo1MzZ9LHsieCI6OTY4Ljc4OTA2MjUsInkiOjUzNn0seyJ4Ijo4MzkuNDI5Njg3NSwieSI6NTM2fSx7IngiOjY4Mi45Mjk2ODc1LCJ5Ijo1MzZ9LHsieCI6NTI2LjQyOTY4NzUsInkiOjUzNn0seyJ4IjozODMuNzM0Mzc1LCJ5Ijo1MzZ9LHsieCI6MjQxLjAzOTA2MjUsInkiOjUzNn0seyJ4IjoxMTkuMDgwMTc4NzU5MjAwODMsInkiOjMyMS43NX1d" marker-end="url(#my-svg_flowchart-v2-pointEnd)"/><path d="M2791.542,358.5L2779.776,380.667C2768.01,402.833,2744.477,447.167,2713.984,469.333C2683.49,491.5,2646.034,491.5,2608.578,491.5C2571.122,491.5,2533.667,491.5,2493.839,491.5C2454.01,491.5,2411.81,491.5,2369.609,491.5C2327.409,491.5,2285.208,491.5,2245.372,491.5C2205.536,491.5,2168.065,491.5,2130.594,491.5C2093.122,491.5,2055.651,491.5,2032.749,491.5C2009.846,491.5,2001.513,491.5,1993.18,491.5C1984.846,491.5,1976.513,491.5,1955.026,491.5C1933.539,491.5,1898.898,491.5,1857.986,491.5C1817.073,491.5,1769.888,491.5,1720.902,491.5C1671.917,491.5,1621.13,491.5,1570.344,491.5C1519.557,491.5,1468.771,491.5,1416.725,491.5C1364.678,491.5,1311.372,491.5,1258.066,491.5C1204.76,491.5,1151.454,491.5,1103.242,491.5C1055.029,491.5,1011.909,491.5,968.789,491.5C925.669,491.5,882.549,491.5,834.906,491.5C787.263,491.5,735.096,491.5,682.93,491.5C630.763,491.5,578.596,491.5,528.73,491.5C478.865,491.5,431.299,491.5,383.734,491.5C336.169,491.5,288.604,491.5,245.391,463.754C202.178,436.009,163.316,380.518,143.886,352.772L124.455,325.026" id="L_S11_S1_0" class="edge-thickness-normal edge-pattern-dotted edge-thickness-normal edge-pattern-solid flowchart-link" style=";" data-edge="true" data-et="edge" data-id="L_S11_S1_0" data-points="W3sieCI6Mjc5MS41NDE4MDgxMDcwMjksInkiOjM1OC41fSx7IngiOjI3MjAuOTQ1MzEyNSwieSI6NDkxLjV9LHsieCI6MjYwOC41NzgxMjUsInkiOjQ5MS41fSx7IngiOjI0OTYuMjEwOTM3NSwieSI6NDkxLjV9LHsieCI6MjM2OS42MDkzNzUsInkiOjQ5MS41fSx7IngiOjIyNDMuMDA3ODEyNSwieSI6NDkxLjV9LHsieCI6MjEzMC41OTM3NSwieSI6NDkxLjV9LHsieCI6MjAxOC4xNzk2ODc1LCJ5Ijo0OTEuNX0seyJ4IjoxOTkzLjE3OTY4NzUsInkiOjQ5MS41fSx7IngiOjE5NjguMTc5Njg3NSwieSI6NDkxLjV9LHsieCI6MTg2NC4yNTc4MTI1LCJ5Ijo0OTEuNX0seyJ4IjoxNzIyLjcwMzEyNSwieSI6NDkxLjV9LHsieCI6MTU3MC4zNDM3NSwieSI6NDkxLjV9LHsieCI6MTQxNy45ODQzNzUsInkiOjQ5MS41fSx7IngiOjEyNTguMDY2NDA2MjUsInkiOjQ5MS41fSx7IngiOjEwOTguMTQ4NDM3NSwieSI6NDkxLjV9LHsieCI6OTY4Ljc4OTA2MjUsInkiOjQ5MS41fSx7IngiOjgzOS40Mjk2ODc1LCJ5Ijo0OTEuNX0seyJ4Ijo2ODIuOTI5Njg3NSwieSI6NDkxLjV9LHsieCI6NTI2LjQyOTY4NzUsInkiOjQ5MS41fSx7IngiOjM4My43MzQzNzUsInkiOjQ5MS41fSx7IngiOjI0MS4wMzkwNjI1LCJ5Ijo0OTEuNX0seyJ4IjoxMjIuMTYwNTM1MjUyMjYzOTEsInkiOjMyMS43NX1d" marker-end="url(#my-svg_flowchart-v2-pointEnd)"/><path d="M2589.883,329.25L2574.271,348.875C2558.659,368.5,2527.435,407.75,2490.723,427.375C2454.01,447,2411.81,447,2369.609,447C2327.409,447,2285.208,447,2245.372,447C2205.536,447,2168.065,447,2130.594,447C2093.122,447,2055.651,447,2032.749,447C2009.846,447,2001.513,447,1993.18,447C1984.846,447,1976.513,447,1955.026,447C1933.539,447,1898.898,447,1857.986,447C1817.073,447,1769.888,447,1720.902,447C1671.917,447,1621.13,447,1570.344,447C1519.557,447,1468.771,447,1416.725,447C1364.678,447,1311.372,447,1258.066,447C1204.76,447,1151.454,447,1103.242,447C1055.029,447,1011.909,447,968.789,447C925.669,447,882.549,447,834.906,447C787.263,447,735.096,447,682.93,447C630.763,447,578.596,447,528.73,447C478.865,447,431.299,447,383.734,447C336.169,447,288.604,447,246.278,426.618C203.951,406.236,166.864,365.472,148.32,345.091L129.776,324.709" id="L_S10_S1_0" class="edge-thickness-normal edge-pattern-dotted edge-thickness-normal edge-pattern-solid flowchart-link" style=";" data-edge="true" data-et="edge" data-id="L_S10_S1_0" data-points="W3sieCI6MjU4OS44ODM0MDcwNzk2NDYsInkiOjMyOS4yNX0seyJ4IjoyNDk2LjIxMDkzNzUsInkiOjQ0N30seyJ4IjoyMzY5LjYwOTM3NSwieSI6NDQ3fSx7IngiOjIyNDMuMDA3ODEyNSwieSI6NDQ3fSx7IngiOjIxMzAuNTkzNzUsInkiOjQ0N30seyJ4IjoyMDE4LjE3OTY4NzUsInkiOjQ0N30seyJ4IjoxOTkzLjE3OTY4NzUsInkiOjQ0N30seyJ4IjoxOTY4LjE3OTY4NzUsInkiOjQ0N30seyJ4IjoxODY0LjI1NzgxMjUsInkiOjQ0N30seyJ4IjoxNzIyLjcwMzEyNSwieSI6NDQ3fSx7IngiOjE1NzAuMzQzNzUsInkiOjQ0N30seyJ4IjoxNDE3Ljk4NDM3NSwieSI6NDQ3fSx7IngiOjEyNTguMDY2NDA2MjUsInkiOjQ0N30seyJ4IjoxMDk4LjE0ODQzNzUsInkiOjQ0N30seyJ4Ijo5NjguNzg5MDYyNSwieSI6NDQ3fSx7IngiOjgzOS40Mjk2ODc1LCJ5Ijo0NDd9LHsieCI6NjgyLjkyOTY4NzUsInkiOjQ0N30seyJ4Ijo1MjYuNDI5Njg3NSwieSI6NDQ3fSx7IngiOjM4My43MzQzNzUsInkiOjQ0N30seyJ4IjoyNDEuMDM5MDYyNSwieSI6NDQ3fSx7IngiOjEyNy4wODM5Mjg1NzE0Mjg1NywieSI6MzIxLjc1fV0=" marker-end="url(#my-svg_flowchart-v2-pointEnd)"/><path d="M2345.997,300L2328.832,317.083C2311.667,334.167,2277.338,368.333,2241.437,385.417C2205.536,402.5,2168.065,402.5,2130.594,402.5C2093.122,402.5,2055.651,402.5,2032.749,402.5C2009.846,402.5,2001.513,402.5,1993.18,402.5C1984.846,402.5,1976.513,402.5,1955.026,402.5C1933.539,402.5,1898.898,402.5,1857.986,402.5C1817.073,402.5,1769.888,402.5,1720.902,402.5C1671.917,402.5,1621.13,402.5,1570.344,402.5C1519.557,402.5,1468.771,402.5,1416.725,402.5C1364.678,402.5,1311.372,402.5,1258.066,402.5C1204.76,402.5,1151.454,402.5,1103.242,402.5C1055.029,402.5,1011.909,402.5,968.789,402.5C925.669,402.5,882.549,402.5,834.906,402.5C787.263,402.5,735.096,402.5,682.93,402.5C630.763,402.5,578.596,402.5,528.73,402.5C478.865,402.5,431.299,402.5,383.734,402.5C336.169,402.5,288.604,402.5,247.878,389.448C207.152,376.397,173.266,350.294,156.323,337.242L139.379,324.191" id="L_S9_S1_0" class="edge-thickness-normal edge-pattern-dotted edge-thickness-normal edge-pattern-solid flowchart-link" style=";" data-edge="true" data-et="edge" data-id="L_S9_S1_0" data-points="W3sieCI6MjM0NS45OTcxNzg4MTk0NDQzLCJ5IjozMDB9LHsieCI6MjI0My4wMDc4MTI1LCJ5Ijo0MDIuNX0seyJ4IjoyMTMwLjU5Mzc1LCJ5Ijo0MDIuNX0seyJ4IjoyMDE4LjE3OTY4NzUsInkiOjQwMi41fSx7IngiOjE5OTMuMTc5Njg3NSwieSI6NDAyLjV9LHsieCI6MTk2OC4xNzk2ODc1LCJ5Ijo0MDIuNX0seyJ4IjoxODY0LjI1NzgxMjUsInkiOjQwMi41fSx7IngiOjE3MjIuNzAzMTI1LCJ5Ijo0MDIuNX0seyJ4IjoxNTcwLjM0Mzc1LCJ5Ijo0MDIuNX0seyJ4IjoxNDE3Ljk4NDM3NSwieSI6NDAyLjV9LHsieCI6MTI1OC4wNjY0MDYyNSwieSI6NDAyLjV9LHsieCI6MTA5OC4xNDg0Mzc1LCJ5Ijo0MDIuNX0seyJ4Ijo5NjguNzg5MDYyNSwieSI6NDAyLjV9LHsieCI6ODM5LjQyOTY4NzUsInkiOjQwMi41fSx7IngiOjY4Mi45Mjk2ODc1LCJ5Ijo0MDIuNX0seyJ4Ijo1MjYuNDI5Njg3NSwieSI6NDAyLjV9LHsieCI6MzgzLjczNDM3NSwieSI6NDAyLjV9LHsieCI6MjQxLjAzOTA2MjUsInkiOjQwMi41fSx7IngiOjEzNi4yMTA1MDY1OTQ3MjQyMiwieSI6MzIxLjc1fV0=" marker-end="url(#my-svg_flowchart-v2-pointEnd)"/><path d="M2106.741,270.75L2091.98,285.292C2077.22,299.833,2047.7,328.917,2028.773,343.458C2009.846,358,2001.513,358,1993.18,358C1984.846,358,1976.513,358,1955.026,358C1933.539,358,1898.898,358,1857.986,358C1817.073,358,1769.888,358,1720.902,358C1671.917,358,1621.13,358,1570.344,358C1519.557,358,1468.771,358,1416.725,358C1364.678,358,1311.372,358,1258.066,358C1204.76,358,1151.454,358,1103.242,358C1055.029,358,1011.909,358,968.789,358C925.669,358,882.549,358,834.906,358C787.263,358,735.096,358,682.93,358C630.763,358,578.596,358,528.73,358C478.865,358,431.299,358,383.734,358C336.169,358,288.604,358,251.747,352.228C214.89,346.455,188.74,334.91,175.665,329.138L162.591,323.366" id="L_S8_S1_0" class="edge-thickness-normal edge-pattern-dotted edge-thickness-normal edge-pattern-solid flowchart-link" style=";" data-edge="true" data-et="edge" data-id="L_S8_S1_0" data-points="W3sieCI6MjEwNi43NDA2NTMyMTY3MDQyLCJ5IjoyNzAuNzV9LHsieCI6MjAxOC4xNzk2ODc1LCJ5IjozNTh9LHsieCI6MTk5My4xNzk2ODc1LCJ5IjozNTh9LHsieCI6MTk2OC4xNzk2ODc1LCJ5IjozNTh9LHsieCI6MTg2NC4yNTc4MTI1LCJ5IjozNTh9LHsieCI6MTcyMi43MDMxMjUsInkiOjM1OH0seyJ4IjoxNTcwLjM0Mzc1LCJ5IjozNTh9LHsieCI6MTQxNy45ODQzNzUsInkiOjM1OH0seyJ4IjoxMjU4LjA2NjQwNjI1LCJ5IjozNTh9LHsieCI6MTA5OC4xNDg0Mzc1LCJ5IjozNTh9LHsieCI6OTY4Ljc4OTA2MjUsInkiOjM1OH0seyJ4Ijo4MzkuNDI5Njg3NSwieSI6MzU4fSx7IngiOjY4Mi45Mjk2ODc1LCJ5IjozNTh9LHsieCI6NTI2LjQyOTY4NzUsInkiOjM1OH0seyJ4IjozODMuNzM0Mzc1LCJ5IjozNTh9LHsieCI6MjQxLjAzOTA2MjUsInkiOjM1OH0seyJ4IjoxNTguOTMxNDg1MzU1NjQ4NTMsInkiOjMyMS43NX1d" marker-end="url(#my-svg_flowchart-v2-pointEnd)"/><path d="M1829.425,241.5L1811.638,253.5C1793.851,265.5,1758.277,289.5,1715.097,301.5C1671.917,313.5,1621.13,313.5,1570.344,313.5C1519.557,313.5,1468.771,313.5,1416.725,313.5C1364.678,313.5,1311.372,313.5,1258.066,313.5C1204.76,313.5,1151.454,313.5,1103.242,313.5C1055.029,313.5,1011.909,313.5,968.789,313.5C925.669,313.5,882.549,313.5,834.906,313.5C787.263,313.5,735.096,313.5,682.93,313.5C630.763,313.5,578.596,313.5,528.73,313.5C478.865,313.5,431.299,313.5,383.734,313.5C336.169,313.5,288.604,313.5,255.045,312.398C221.486,311.297,201.934,309.094,192.157,307.992L182.381,306.89" id="L_S7_S1_0" class="edge-thickness-normal edge-pattern-dotted edge-thickness-normal edge-pattern-solid flowchart-link" style=";" data-edge="true" data-et="edge" data-id="L_S7_S1_0" data-points="W3sieCI6MTgyOS40MjQ5ODM2Mzg3NDM1LCJ5IjoyNDEuNX0seyJ4IjoxNzIyLjcwMzEyNSwieSI6MzEzLjV9LHsieCI6MTU3MC4zNDM3NSwieSI6MzEzLjV9LHsieCI6MTQxNy45ODQzNzUsInkiOjMxMy41fSx7IngiOjEyNTguMDY2NDA2MjUsInkiOjMxMy41fSx7IngiOjEwOTguMTQ4NDM3NSwieSI6MzEzLjV9LHsieCI6OTY4Ljc4OTA2MjUsInkiOjMxMy41fSx7IngiOjgzOS40Mjk2ODc1LCJ5IjozMTMuNX0seyJ4Ijo2ODIuOTI5Njg3NSwieSI6MzEzLjV9LHsieCI6NTI2LjQyOTY4NzUsInkiOjMxMy41fSx7IngiOjM4My43MzQzNzUsInkiOjMxMy41fSx7IngiOjI0MS4wMzkwNjI1LCJ5IjozMTMuNX0seyJ4IjoxNzguNDA2MjUsInkiOjMwNi40NDIzNzQzMDAwNjM1fV0=" marker-end="url(#my-svg_flowchart-v2-pointEnd)"/><path d="M1525.728,212.25L1507.77,221.708C1489.813,231.167,1453.899,250.083,1409.289,259.542C1364.678,269,1311.372,269,1258.066,269C1204.76,269,1151.454,269,1103.242,269C1055.029,269,1011.909,269,968.789,269C925.669,269,882.549,269,834.906,269C787.263,269,735.096,269,682.93,269C630.763,269,578.596,269,528.73,269C478.865,269,431.299,269,383.734,269C336.169,269,288.604,269,255.034,271.115C221.465,273.231,201.89,277.461,192.103,279.576L182.316,281.692" id="L_S6_S1_0" class="edge-thickness-normal edge-pattern-dotted edge-thickness-normal edge-pattern-solid flowchart-link" style=";" data-edge="true" data-et="edge" data-id="L_S6_S1_0" data-points="W3sieCI6MTUyNS43Mjc2MDkwMzQyNjgsInkiOjIxMi4yNX0seyJ4IjoxNDE3Ljk4NDM3NSwieSI6MjY5fSx7IngiOjEyNTguMDY2NDA2MjUsInkiOjI2OX0seyJ4IjoxMDk4LjE0ODQzNzUsInkiOjI2OX0seyJ4Ijo5NjguNzg5MDYyNSwieSI6MjY5fSx7IngiOjgzOS40Mjk2ODc1LCJ5IjoyNjl9LHsieCI6NjgyLjkyOTY4NzUsInkiOjI2OX0seyJ4Ijo1MjYuNDI5Njg3NSwieSI6MjY5fSx7IngiOjM4My43MzQzNzUsInkiOjI2OX0seyJ4IjoyNDEuMDM5MDYyNSwieSI6MjY5fSx7IngiOjE3OC40MDYyNSwieSI6MjgyLjUzNjc1NzQ5MDA0MjEzfV0=" marker-end="url(#my-svg_flowchart-v2-pointEnd)"/><path d="M1200.25,183L1183.233,189.917C1166.216,196.833,1132.182,210.667,1093.605,217.583C1055.029,224.5,1011.909,224.5,968.789,224.5C925.669,224.5,882.549,224.5,834.906,224.5C787.263,224.5,735.096,224.5,682.93,224.5C630.763,224.5,578.596,224.5,528.73,224.5C478.865,224.5,431.299,224.5,383.734,224.5C336.169,224.5,288.604,224.5,250.038,232.556C211.473,240.612,181.906,256.724,167.123,264.78L152.339,272.836" id="L_S5_S1_0" class="edge-thickness-normal edge-pattern-dotted edge-thickness-normal edge-pattern-solid flowchart-link" style=";" data-edge="true" data-et="edge" data-id="L_S5_S1_0" data-points="W3sieCI6MTIwMC4yNDk5MDk4NTU3NjkxLCJ5IjoxODN9LHsieCI6MTA5OC4xNDg0Mzc1LCJ5IjoyMjQuNX0seyJ4Ijo5NjguNzg5MDYyNSwieSI6MjI0LjV9LHsieCI6ODM5LjQyOTY4NzUsInkiOjIyNC41fSx7IngiOjY4Mi45Mjk2ODc1LCJ5IjoyMjQuNX0seyJ4Ijo1MjYuNDI5Njg3NSwieSI6MjI0LjV9LHsieCI6MzgzLjczNDM3NSwieSI6MjI0LjV9LHsieCI6MjQxLjAzOTA2MjUsInkiOjIyNC41fSx7IngiOjE0OC44MjcxMTg2NDQwNjc4LCJ5IjoyNzQuNzV9XQ==" marker-end="url(#my-svg_flowchart-v2-pointEnd)"/><path d="M907.685,153.75L896.309,158.125C884.933,162.5,862.181,171.25,824.722,175.625C787.263,180,735.096,180,682.93,180C630.763,180,578.596,180,528.73,180C478.865,180,431.299,180,383.734,180C336.169,180,288.604,180,247.25,195.353C205.896,210.706,170.754,241.412,153.182,256.765L135.611,272.118" id="L_S4_S1_0" class="edge-thickness-normal edge-pattern-dotted edge-thickness-normal edge-pattern-solid flowchart-link" style=";" data-edge="true" data-et="edge" data-id="L_S4_S1_0" data-points="W3sieCI6OTA3LjY4NDYzNDEwODA0MDIsInkiOjE1My43NX0seyJ4Ijo4MzkuNDI5Njg3NSwieSI6MTgwfSx7IngiOjY4Mi45Mjk2ODc1LCJ5IjoxODB9LHsieCI6NTI2LjQyOTY4NzUsInkiOjE4MH0seyJ4IjozODMuNzM0Mzc1LCJ5IjoxODB9LHsieCI6MjQxLjAzOTA2MjUsInkiOjE4MH0seyJ4IjoxMzIuNTk4NjM5MDA2MzQyNSwieSI6Mjc0Ljc1fV0=" marker-end="url(#my-svg_flowchart-v2-pointEnd)"/><path d="M589.063,121.693L578.624,123.994C568.185,126.295,547.307,130.898,513.086,133.199C478.865,135.5,431.299,135.5,383.734,135.5C336.169,135.5,288.604,135.5,245.949,158.196C203.293,180.891,165.548,226.283,146.675,248.979L127.802,271.674" id="L_S3_S1_0" class="edge-thickness-normal edge-pattern-dotted edge-thickness-normal edge-pattern-solid flowchart-link" style=";" data-edge="true" data-et="edge" data-id="L_S3_S1_0" data-points="W3sieCI6NTg5LjA2MjUsInkiOjEyMS42OTI3NjY1NzM0ODI0M30seyJ4Ijo1MjYuNDI5Njg3NSwieSI6MTM1LjV9LHsieCI6MzgzLjczNDM3NSwieSI6MTM1LjV9LHsieCI6MjQxLjAzOTA2MjUsInkiOjEzNS41fSx7IngiOjEyNS4yNDQ3MTk2NjIwNTgzNywieSI6Mjc0Ljc1fV0=" marker-end="url(#my-svg_flowchart-v2-pointEnd)"/><path d="M303.672,77.301L293.233,78.709C282.794,80.117,261.917,82.934,231.774,115.279C201.632,147.625,162.225,209.501,142.522,240.438L122.818,271.376" id="L_S2_S1_0" class="edge-thickness-normal edge-pattern-dotted edge-thickness-normal edge-pattern-solid flowchart-link" style=";" data-edge="true" data-et="edge" data-id="L_S2_S1_0" data-points="W3sieCI6MzAzLjY3MTg3NSwieSI6NzcuMzAwNjU2OTk0MjUxM30seyJ4IjoyNDEuMDM5MDYyNSwieSI6ODUuNzV9LHsieCI6MTIwLjY2OTY4NzUsInkiOjI3NC43NX1d" marker-end="url(#my-svg_flowchart-v2-pointEnd)"/></g><g class="edgeLabels"><g><rect class="background" style="stroke: none"/></g><g><rect class="background" style="stroke: none"/></g><g><rect class="background" style="stroke: none"/></g><g><rect class="background" style="stroke: none"/></g><g><rect class="background" style="stroke: none"/></g><g><rect class="background" style="stroke: none"/></g><g><rect class="background" style="stroke: none"/></g><g><rect class="background" style="stroke: none"/></g><g><rect class="background" style="stroke: none"/></g><g><rect class="background" style="stroke: none"/></g><g><rect class="background" style="stroke: none"/></g><g class="edgeLabel"><g class="label" data-id="L_S1_S2_0" transform="translate(0, 0)"><text y="-10.1"><tspan class="text-outer-tspan" x="0" y="-0.1em" dy="1.1em"/></text></g></g><g class="edgeLabel"><g class="label" data-id="L_S2_S3_0" transform="translate(0, 0)"><text y="-10.1"><tspan class="text-outer-tspan" x="0" y="-0.1em" dy="1.1em"/></text></g></g><g class="edgeLabel"><g class="label" data-id="L_S3_S4_0" transform="translate(0, 0)"><text y="-10.1"><tspan class="text-outer-tspan" x="0" y="-0.1em" dy="1.1em"/></text></g></g><g class="edgeLabel"><g class="label" data-id="L_S4_S5_0" transform="translate(0, 0)"><text y="-10.1"><tspan class="text-outer-tspan" x="0" y="-0.1em" dy="1.1em"/></text></g></g><g class="edgeLabel"><g class="label" data-id="L_S5_S6_0" transform="translate(0, 0)"><text y="-10.1"><tspan class="text-outer-tspan" x="0" y="-0.1em" dy="1.1em"/></text></g></g><g class="edgeLabel"><g class="label" data-id="L_S6_S7_0" transform="translate(0, 0)"><text y="-10.1"><tspan class="text-outer-tspan" x="0" y="-0.1em" dy="1.1em"/></text></g></g><g class="edgeLabel"><g class="label" data-id="L_S8_S9_0" transform="translate(0, 0)"><text y="-10.1"><tspan class="text-outer-tspan" x="0" y="-0.1em" dy="1.1em"/></text></g></g><g class="edgeLabel"><g class="label" data-id="L_S9_S10_0" transform="translate(0, 0)"><text y="-10.1"><tspan class="text-outer-tspan" x="0" y="-0.1em" dy="1.1em"/></text></g></g><g class="edgeLabel"><g class="label" data-id="L_S10_S11_0" transform="translate(0, 0)"><text y="-10.1"><tspan class="text-outer-tspan" x="0" y="-0.1em" dy="1.1em"/></text></g></g><g class="edgeLabel"><g class="label" data-id="L_S11_S12_0" transform="translate(0, 0)"><text y="-10.1"><tspan class="text-outer-tspan" x="0" y="-0.1em" dy="1.1em"/></text></g></g><g class="edgeLabel"><g class="label" data-id="L_S7_S8_0" transform="translate(0, 0)"><text y="-10.1"><tspan class="text-outer-tspan" x="0" y="-0.1em" dy="1.1em"/></text></g></g><g class="edgeLabel" transform="translate(1722.703125, 536)"><g class="label" data-id="L_S12_S1_0" transform="translate(-37.6328125, -10.5)"><g><rect class="background" style="" x="-2" y="0" width="75.265625" height="21"/><text y="-10.1" style=""><tspan class="text-outer-tspan" x="0" y="-0.1em" dy="1.1em"><tspan font-style="normal" class="text-inner-tspan" font-weight="normal">Feedback</tspan></tspan></text></g></g></g><g class="edgeLabel" transform="translate(1570.34375, 491.5)"><g class="label" data-id="L_S11_S1_0" transform="translate(-37.6328125, -10.5)"><g><rect class="background" style="" x="-2" y="0" width="75.265625" height="21"/><text y="-10.1" style=""><tspan class="text-outer-tspan" x="0" y="-0.1em" dy="1.1em"><tspan font-style="normal" class="text-inner-tspan" font-weight="normal">Feedback</tspan></tspan></text></g></g></g><g class="edgeLabel" transform="translate(1417.984375, 447)"><g class="label" data-id="L_S10_S1_0" transform="translate(-37.6328125, -10.5)"><g><rect class="background" style="" x="-2" y="0" width="75.265625" height="21"/><text y="-10.1" style=""><tspan class="text-outer-tspan" x="0" y="-0.1em" dy="1.1em"><tspan font-style="normal" class="text-inner-tspan" font-weight="normal">Feedback</tspan></tspan></text></g></g></g><g class="edgeLabel" transform="translate(1258.06640625, 402.5)"><g class="label" data-id="L_S9_S1_0" transform="translate(-37.6328125, -10.5)"><g><rect class="background" style="" x="-2" y="0" width="75.265625" height="21"/><text y="-10.1" style=""><tspan class="text-outer-tspan" x="0" y="-0.1em" dy="1.1em"><tspan font-style="normal" class="text-inner-tspan" font-weight="normal">Feedback</tspan></tspan></text></g></g></g><g class="edgeLabel" transform="translate(1098.1484375, 358)"><g class="label" data-id="L_S8_S1_0" transform="translate(-37.6328125, -10.5)"><g><rect class="background" style="" x="-2" y="0" width="75.265625" height="21"/><text y="-10.1" style=""><tspan class="text-outer-tspan" x="0" y="-0.1em" dy="1.1em"><tspan font-style="normal" class="text-inner-tspan" font-weight="normal">Feedback</tspan></tspan></text></g></g></g><g class="edgeLabel" transform="translate(968.7890625, 313.5)"><g class="label" data-id="L_S7_S1_0" transform="translate(-37.6328125, -10.5)"><g><rect class="background" style="" x="-2" y="0" width="75.265625" height="21"/><text y="-10.1" style=""><tspan class="text-outer-tspan" x="0" y="-0.1em" dy="1.1em"><tspan font-style="normal" class="text-inner-tspan" font-weight="normal">Feedback</tspan></tspan></text></g></g></g><g class="edgeLabel" transform="translate(839.4296875, 269)"><g class="label" data-id="L_S6_S1_0" transform="translate(-37.6328125, -10.5)"><g><rect class="background" style="" x="-2" y="0" width="75.265625" height="21"/><text y="-10.1" style=""><tspan class="text-outer-tspan" x="0" y="-0.1em" dy="1.1em"><tspan font-style="normal" class="text-inner-tspan" font-weight="normal">Feedback</tspan></tspan></text></g></g></g><g class="edgeLabel" transform="translate(682.9296875, 224.5)"><g class="label" data-id="L_S5_S1_0" transform="translate(-37.6328125, -10.5)"><g><rect class="background" style="" x="-2" y="0" width="75.265625" height="21"/><text y="-10.1" style=""><tspan class="text-outer-tspan" x="0" y="-0.1em" dy="1.1em"><tspan font-style="normal" class="text-inner-tspan" font-weight="normal">Feedback</tspan></tspan></text></g></g></g><g class="edgeLabel" transform="translate(526.4296875, 180)"><g class="label" data-id="L_S4_S1_0" transform="translate(-37.6328125, -10.5)"><g><rect class="background" style="" x="-2" y="0" width="75.265625" height="21"/><text y="-10.1" style=""><tspan class="text-outer-tspan" x="0" y="-0.1em" dy="1.1em"><tspan font-style="normal" class="text-inner-tspan" font-weight="normal">Feedback</tspan></tspan></text></g></g></g><g class="edgeLabel" transform="translate(383.734375, 135.5)"><g class="label" data-id="L_S3_S1_0" transform="translate(-37.6328125, -10.5)"><g><rect class="background" style="" x="-2" y="0" width="75.265625" height="21"/><text y="-10.1" style=""><tspan class="text-outer-tspan" x="0" y="-0.1em" dy="1.1em"><tspan font-style="normal" class="text-inner-tspan" font-weight="normal">Feedback</tspan></tspan></text></g></g></g><g class="edgeLabel" transform="translate(197.82938, 153.5964)"><g class="label" data-id="L_S2_S1_0" transform="translate(-37.6328125, -10.5)"><g><rect class="background" style="" x="-2" y="0" width="75.265625" height="21"/><text y="-10.1" style=""><tspan class="text-outer-tspan" x="0" y="-0.1em" dy="1.1em"><tspan font-style="normal" class="text-inner-tspan" font-weight="normal">Feedback</tspan></tspan></text></g></g></g></g><g class="nodes"><g class="node default" id="flowchart-S1-0" transform="translate(105.703125, 298.25)"><rect class="basic label-container" style="" x="-72.703125" y="-23.5" width="145.40625" height="47"/><g class="label" style="" transform="translate(0, -8.5)"><rect/><g><rect class="background" style="stroke: none"/><text y="-10.1" style=""><tspan class="text-outer-tspan" x="0" y="-0.1em" dy="1.1em"><tspan font-style="normal" class="text-inner-tspan" font-weight="normal">1. Authoring</tspan></tspan></text></g></g></g><g class="node default" id="flowchart-S2-1" transform="translate(383.734375, 66.5)"><rect class="basic label-container" style="" x="-80.0625" y="-23.5" width="160.125" height="47"/><g class="label" style="" transform="translate(0, -8.5)"><rect/><g><rect class="background" style="stroke: none"/><text y="-10.1" style=""><tspan class="text-outer-tspan" x="0" y="-0.1em" dy="1.1em"><tspan font-style="normal" class="text-inner-tspan" font-weight="normal">2. Pre-commit</tspan></tspan></text></g></g></g><g class="node default" id="flowchart-S3-3" transform="translate(682.9296875, 101)"><rect class="basic label-container" style="" x="-93.8671875" y="-23.5" width="187.734375" height="47"/><g class="label" style="" transform="translate(0, -8.5)"><rect/><g><rect class="background" style="stroke: none"/><text y="-10.1" style=""><tspan class="text-outer-tspan" x="0" y="-0.1em" dy="1.1em"><tspan font-style="normal" class="text-inner-tspan" font-weight="normal">3. Merge Request</tspan></tspan></text></g></g></g><g class="node default" id="flowchart-S4-5" transform="translate(968.7890625, 130.25)"><rect class="basic label-container" style="" x="-66.7265625" y="-23.5" width="133.453125" height="47"/><g class="label" style="" transform="translate(0, -8.5)"><rect/><g><rect class="background" style="stroke: none"/><text y="-10.1" style=""><tspan class="text-outer-tspan" x="0" y="-0.1em" dy="1.1em"><tspan font-style="normal" class="text-inner-tspan" font-weight="normal">4. Commit</tspan></tspan></text></g></g></g><g class="node default" id="flowchart-S5-7" transform="translate(1258.06640625, 159.5)"><rect class="basic label-container" style="" x="-97.28515625" y="-23.5" width="194.5703125" height="47"/><g class="label" style="" transform="translate(0, -8.5)"><rect/><g><rect class="background" style="stroke: none"/><text y="-10.1" style=""><tspan class="text-outer-tspan" x="0" y="-0.1em" dy="1.1em"><tspan font-style="normal" class="text-inner-tspan" font-weight="normal">5. Acceptance Test</tspan></tspan></text></g></g></g><g class="node default" id="flowchart-S6-9" transform="translate(1570.34375, 188.75)"><rect class="basic label-container" style="" x="-89.7265625" y="-23.5" width="179.453125" height="47"/><g class="label" style="" transform="translate(0, -8.5)"><rect/><g><rect class="background" style="stroke: none"/><text y="-10.1" style=""><tspan class="text-outer-tspan" x="0" y="-0.1em" dy="1.1em"><tspan font-style="normal" class="text-inner-tspan" font-weight="normal">6. Extended Test</tspan></tspan></text></g></g></g><g class="node default" id="flowchart-S7-11" transform="translate(1864.2578125, 218)"><rect class="basic label-container" style="" x="-78.921875" y="-23.5" width="157.84375" height="47"/><g class="label" style="" transform="translate(0, -8.5)"><rect/><g><rect class="background" style="stroke: none"/><text y="-10.1" style=""><tspan class="text-outer-tspan" x="0" y="-0.1em" dy="1.1em"><tspan font-style="normal" class="text-inner-tspan" font-weight="normal">7. Exploration</tspan></tspan></text></g></g></g><g class="node default" id="flowchart-S8-12" transform="translate(2130.59375, 247.25)"><rect class="basic label-container" style="" x="-87.4140625" y="-23.5" width="174.828125" height="47"/><g class="label" style="" transform="translate(0, -8.5)"><rect/><g><rect class="background" style="stroke: none"/><text y="-10.1" style=""><tspan class="text-outer-tspan" x="0" y="-0.1em" dy="1.1em"><tspan font-style="normal" class="text-inner-tspan" font-weight="normal">8. Start Release</tspan></tspan></text></g></g></g><g class="node default" id="flowchart-S9-13" transform="translate(2369.609375, 276.5)"><rect class="basic label-container" style="" x="-101.6015625" y="-23.5" width="203.203125" height="47"/><g class="label" style="" transform="translate(0, -8.5)"><rect/><g><rect class="background" style="stroke: none"/><text y="-10.1" style=""><tspan class="text-outer-tspan" x="0" y="-0.1em" dy="1.1em"><tspan font-style="normal" class="text-inner-tspan" font-weight="normal">9. Release Approval</tspan></tspan></text></g></g></g><g class="node default" id="flowchart-S10-15" transform="translate(2608.578125, 305.75)"><rect class="basic label-container" style="" x="-87.3671875" y="-23.5" width="174.734375" height="47"/><g class="label" style="" transform="translate(0, -8.5)"><rect/><g><rect class="background" style="stroke: none"/><text y="-10.1" style=""><tspan class="text-outer-tspan" x="0" y="-0.1em" dy="1.1em"><tspan font-style="normal" class="text-inner-tspan" font-weight="normal">10. Prod Deploy</tspan></tspan></text></g></g></g><g class="node default" id="flowchart-S11-17" transform="translate(2804.015625, 335)"><rect class="basic label-container" style="" x="-58.0703125" y="-23.5" width="116.140625" height="47"/><g class="label" style="" transform="translate(0, -8.5)"><rect/><g><rect class="background" style="stroke: none"/><text y="-10.1" style=""><tspan class="text-outer-tspan" x="0" y="-0.1em" dy="1.1em"><tspan font-style="normal" class="text-inner-tspan" font-weight="normal">11. Live</tspan></tspan></text></g></g></g><g class="node default" id="flowchart-S12-19" transform="translate(2985.0859375, 364.25)"><rect class="basic label-container" style="" x="-73" y="-23.5" width="146" height="47"/><g class="label" style="" transform="translate(0, -8.5)"><rect/><g><rect class="background" style="stroke: none"/><text y="-10.1" style=""><tspan class="text-outer-tspan" x="0" y="-0.1em" dy="1.1em"><tspan font-style="normal" class="text-inner-tspan" font-weight="normal">12. Toggling</tspan></tspan></text></g></g></g></g></g></g></svg>