<svg id="my-svg" width="100%" xmlns="http://www.w3.org/2000/svg" xmlns:xlink="http://www.w3.org/1999/xlink" class="flowchart" style="max-width: 265.438px; background-color: transparent;" viewBox="0 0 265.4375 409.3999938964844" role="graphics-document document" aria-roledescription="flowchart-v2"><style>#my-svg{font-family:"trebuchet ms",verdana,arial,sans-serif;font-size:16px;fill:#ccc;}@keyframes edge-animation-frame{from{stroke-dashoffset:0;}}@keyframes dash{to{stroke-dashoffset:0;}}#my-svg .edge-animation-slow{stroke-dasharray:9,5!important;stroke-dashoffset:900;animation:dash 50s linear infinite;stroke-linecap:round;}#my-svg .edge-animation-fast{stroke-dasharray:9,5!important;stroke-dashoffset:900;animation:dash 20s linear infinite;stroke-linecap:round;}#my-svg .error-icon{fill:#a44141;}#my-svg .error-text{fill:#ddd;stroke:#ddd;}#my-svg .edge-thickness-normal{stroke-width:1px;}#my-svg .edge-thickness-thick{stroke-width:3.5px;}#my-svg .edge-pattern-solid{stroke-dasharray:0;}#my-svg .edge-thickness-invisible{stroke-width:0;fill:none;}#my-svg .edge-pattern-dashed{stroke-dasharray:3;}#my-svg .edge-pattern-dotted{stroke-dasharray:2;}#my-svg .marker{fill:lightgrey;stroke:lightgrey;}#my-svg .marker.cross{stroke:lightgrey;}#my-svg svg{font-family:"trebuchet ms",verdana,arial,sans-serif;font-size:16px;}#my-svg p{margin:0;}#my-svg .label{font-family:"trebuchet ms",verdana,arial,sans-serif;color:#ccc;}#my-svg .cluster-label text{fill:#F9FFFE;}#my-svg .cluster-label span{color:#F9FFFE;}#my-svg .cluster-label span p{background-color:transparent;}#my-svg .label text,#my-svg span{fill:#ccc;color:#ccc;}#my-svg .node rect,#my-svg .node circle,#my-svg .node ellipse,#my-svg .node polygon,#my-svg .node path{fill:#1f2020;stroke:#ccc;stroke-width:1px;}#my-svg .rough-node .label text,#my-svg .node .label text,#my-svg .image-shape .label,#my-svg .icon-shape .label{text-anchor:middle;}#my-svg .node .katex path{fill:#000;stroke:#000;stroke-width:1px;}#my-svg .rough-node .label,#my-svg .node .label,#my-svg .image-shape .label,#my-svg .icon-shape .label{text-align:center;}#my-svg .node.clickable{cursor:pointer;}#my-svg .root .anchor path{fill:lightgrey!important;stroke-width:0;stroke:lightgrey;}#my-svg .arrowheadPath{fill:lightgrey;}#my-svg .edgePath .path{stroke:lightgrey;stroke-width:2.0px;}#my-svg .flowchart-link{stroke:lightgrey;fill:none;}#my-svg .edgeLabel{background-color:hsl(0, 0%, 34.4117647059%);text-align:center;}#my-svg .edgeLabel p{background-color:hsl(0, 0%, 34.4117647059%);}#my-svg .edgeLabel rect{opacity:0.5;background-color:hsl(0, 0%, 34.4117647059%);fill:hsl(0, 0%, 34.4117647059%);}#my-svg .labelBkg{background-color:rgba(87.75, 87.75, 87.75, 0.5);}#my-svg .cluster rect{fill:hsl(180, 1.5873015873%, 28.3529411765%);stroke:rgba(255, 255, 255, 0.25);stroke-width:1px;}#my-svg .cluster text{fill:#F9FFFE;}#my-svg .cluster span{color:#F9FFFE;}#my-svg div.mermaidTooltip{position:absolute;text-align:center;max-width:200px;padding:2px;font-family:"trebuchet ms",verdana,arial,sans-serif;font-size:12px;background:hsl(20, 1.5873015873%, 12.3529411765%);border:1px solid rgba(255, 255, 255, 0.25);border-radius:2px;pointer-events:none;z-index:100;}#my-svg .flowchartTitleText{text-anchor:middle;font-size:18px;fill:#ccc;}#my-svg rect.text{fill:none;stroke-width:0;}#my-svg .icon-shape,#my-svg .image-shape{background-color:hsl(0, 0%, 34.4117647059%);text-align:center;}#my-svg .icon-shape p,#my-svg .image-shape p{background-color:hsl(0, 0%, 34.4117647059%);padding:2px;}#my-svg .icon-shape rect,#my-svg .image-shape rect{opacity:0.5;background-color:hsl(0, 0%, 34.4117647059%);fill:hsl(0, 0%, 34.4117647059%);}#my-svg .label-icon{display:inline-block;height:1em;overflow:visible;vertical-align:-0.125em;}#my-svg .node .label-icon path{fill:currentColor;stroke:revert;stroke-width:revert;}#my-svg :root{--mermaid-font-family:"trebuchet ms",verdana,arial,sans-serif;}</style><g><marker id="my-svg_flowchart-v2-pointEnd" class="marker flowchart-v2" viewBox="0 0 10 10" refX="5" refY="5" markerUnits="userSpaceOnUse" markerWidth="8" markerHeight="8" orient="auto"><path d="M 0 0 L 10 5 L 0 10 z" class="arrowMarkerPath" style="stroke-width: 1; stroke-dasharray: 1, 0;"/></marker><marker id="my-svg_flowchart-v2-pointStart" class="marker flowchart-v2" viewBox="0 0 10 10" refX="4.5" refY="5" markerUnits="userSpaceOnUse" markerWidth="8" markerHeight="8" orient="auto"><path d="M 0 5 L 10 10 L 10 0 z" class="arrowMarkerPath" style="stroke-width: 1; stroke-dasharray: 1, 0;"/></marker><marker id="my-svg_flowchart-v2-circleEnd" class="marker flowchart-v2" viewBox="0 0 10 10" refX="11" refY="5" markerUnits="userSpaceOnUse" markerWidth="11" markerHeight="11" orient="auto"><circle cx="5" cy="5" r="5" class="arrowMarkerPath" style="stroke-width: 1; stroke-dasharray: 1, 0;"/></marker><marker id="my-svg_flowchart-v2-circleStart" class="marker flowchart-v2" viewBox="0 0 10 10" refX="-1" refY="5" markerUnits="userSpaceOnUse" markerWidth="11" markerHeight="11" orient="auto"><circle cx="5" cy="5" r="5" class="arrowMarkerPath" style="stroke-width: 1; stroke-dasharray: 1, 0;"/></marker><marker id="my-svg_flowchart-v2-crossEnd" class="marker cross flowchart-v2" viewBox="0 0 11 11" refX="12" refY="5.2" markerUnits="userSpaceOnUse" markerWidth="11" markerHeight="11" orient="auto"><path d="M 1,1 l 9,9 M 10,1 l -9,9" class="arrowMarkerPath" style="stroke-width: 2; stroke-dasharray: 1, 0;"/></marker><marker id="my-svg_flowchart-v2-crossStart" class="marker cross flowchart-v2" viewBox="0 0 11 11" refX="-1" refY="5.2" markerUnits="userSpaceOnUse" markerWidth="11" markerHeight="11" orient="auto"><path d="M 1,1 l 9,9 M 10,1 l -9,9" class="arrowMarkerPath" style="stroke-width: 2; stroke-dasharray: 1, 0;"/></marker><g class="root"><g class="clusters"/><g class="edgePaths"><path d="M132.719,72.6L132.719,76.767C132.719,80.933,132.719,89.267,132.719,96.933C132.719,104.6,132.719,111.6,132.719,115.1L132.719,118.6" id="L_S1_S2_0" class="edge-thickness-normal edge-pattern-solid edge-thickness-normal edge-pattern-solid flowchart-link" style=";" data-edge="true" data-et="edge" data-id="L_S1_S2_0" data-points="W3sieCI6MTMyLjcxODc1LCJ5Ijo3Mi41OTk5OTg0NzQxMjExfSx7IngiOjEzMi43MTg3NSwieSI6OTcuNTk5OTk4NDc0MTIxMX0seyJ4IjoxMzIuNzE4NzUsInkiOjEyMi41OTk5OTg0NzQxMjExfV0=" marker-end="url(#my-svg_flowchart-v2-pointEnd)"/><path d="M132.719,187.2L132.719,191.367C132.719,195.533,132.719,203.867,132.719,211.533C132.719,219.2,132.719,226.2,132.719,229.7L132.719,233.2" id="L_S2_S3_0" class="edge-thickness-normal edge-pattern-solid edge-thickness-normal edge-pattern-solid flowchart-link" style=";" data-edge="true" data-et="edge" data-id="L_S2_S3_0" data-points="W3sieCI6MTMyLjcxODc1LCJ5IjoxODcuMTk5OTk2OTQ4MjQyMn0seyJ4IjoxMzIuNzE4NzUsInkiOjIxMi4xOTk5OTY5NDgyNDIyfSx7IngiOjEzMi43MTg3NSwieSI6MjM3LjE5OTk5Njk0ODI0MjJ9XQ==" marker-end="url(#my-svg_flowchart-v2-pointEnd)"/><path d="M132.719,319.4L132.719,323.567C132.719,327.733,132.719,336.067,132.789,343.817C132.859,351.567,133,358.734,133.07,362.317L133.14,365.901" id="L_S3_Approved_0" class="edge-thickness-normal edge-pattern-solid edge-thickness-normal edge-pattern-solid flowchart-link" style=";" data-edge="true" data-et="edge" data-id="L_S3_Approved_0" data-points="W3sieCI6MTMyLjcxODc1LCJ5IjozMTkuMzk5OTkzODk2NDg0NH0seyJ4IjoxMzIuNzE4NzUsInkiOjM0NC4zOTk5OTM4OTY0ODQ0fSx7IngiOjEzMy4yMTg3NSwieSI6MzY5Ljg5OTk5Mzg5NjQ4NDR9XQ==" marker-end="url(#my-svg_flowchart-v2-pointEnd)"/></g><g class="edgeLabels"><g><rect class="background" style="stroke: none"/></g><g><rect class="background" style="stroke: none"/></g><g><rect class="background" style="stroke: none"/></g><g class="edgeLabel"><g class="label" data-id="L_S1_S2_0" transform="translate(0, 0)"><text y="-10.1"><tspan class="text-outer-tspan" x="0" y="-0.1em" dy="1.1em"/></text></g></g><g class="edgeLabel"><g class="label" data-id="L_S2_S3_0" transform="translate(0, 0)"><text y="-10.1"><tspan class="text-outer-tspan" x="0" y="-0.1em" dy="1.1em"/></text></g></g><g class="edgeLabel"><g class="label" data-id="L_S3_Approved_0" transform="translate(0, 0)"><text y="-10.1"><tspan class="text-outer-tspan" x="0" y="-0.1em" dy="1.1em"/></text></g></g></g><g class="nodes"><g class="node default" id="flowchart-S1-0" transform="translate(132.71875, 40.29999923706055)"><rect class="basic label-container" style="" x="-99.828125" y="-32.29999923706055" width="199.65625" height="64.5999984741211"/><g class="label" style="" transform="translate(0, -17.299999237060547)"><rect/><g><rect class="background" style="stroke: none"/><text y="-10.1" style=""><tspan class="text-outer-tspan" x="0" y="-0.1em" dy="1.1em"><tspan font-style="normal" class="text-inner-tspan" font-weight="normal">Stage</tspan><tspan font-style="normal" class="text-inner-tspan" font-weight="normal"> 1:</tspan><tspan font-style="normal" class="text-inner-tspan" font-weight="normal"> Authoring</tspan></tspan><tspan class="text-outer-tspan" x="0" y="1em" dy="1.1em"><tspan font-style="normal" class="text-inner-tspan" font-weight="normal">Create</tspan><tspan font-style="normal" class="text-inner-tspan" font-weight="normal"> topic</tspan><tspan font-style="normal" class="text-inner-tspan" font-weight="normal"> branch</tspan></tspan></text></g></g></g><g class="node default" id="flowchart-S2-1" transform="translate(132.71875, 154.89999771118164)"><rect class="basic label-container" style="" x="-124.71875" y="-32.29999923706055" width="249.4375" height="64.5999984741211"/><g class="label" style="" transform="translate(0, -17.299999237060547)"><rect/><g><rect class="background" style="stroke: none"/><text y="-10.1" style=""><tspan class="text-outer-tspan" x="0" y="-0.1em" dy="1.1em"><tspan font-style="normal" class="text-inner-tspan" font-weight="normal">Stage</tspan><tspan font-style="normal" class="text-inner-tspan" font-weight="normal"> 2:</tspan><tspan font-style="normal" class="text-inner-tspan" font-weight="normal"> Pre-commit</tspan></tspan><tspan class="text-outer-tspan" x="0" y="1em" dy="1.1em"><tspan font-style="normal" class="text-inner-tspan" font-weight="normal">Run</tspan><tspan font-style="normal" class="text-inner-tspan" font-weight="normal"> L0/L1</tspan><tspan font-style="normal" class="text-inner-tspan" font-weight="normal"> tests</tspan><tspan font-style="normal" class="text-inner-tspan" font-weight="normal"> (5-10</tspan><tspan font-style="normal" class="text-inner-tspan" font-weight="normal"> min)</tspan></tspan></text></g></g></g><g class="node default" id="flowchart-S3-2" transform="translate(132.71875, 278.2999954223633)"><rect class="basic label-container" style="" x="-121.2890625" y="-41.099998474121094" width="242.578125" height="82.19999694824219"/><g class="label" style="" transform="translate(0, -26.099998474121094)"><rect/><g><rect class="background" style="stroke: none"/><text y="-10.1" style=""><tspan class="text-outer-tspan" x="0" y="-0.1em" dy="1.1em"><tspan font-style="normal" class="text-inner-tspan" font-weight="normal">Stage</tspan><tspan font-style="normal" class="text-inner-tspan" font-weight="normal"> 3:</tspan><tspan font-style="normal" class="text-inner-tspan" font-weight="normal"> Merge</tspan><tspan font-style="normal" class="text-inner-tspan" font-weight="normal"> Request</tspan></tspan><tspan class="text-outer-tspan" x="0" y="1em" dy="1.1em"><tspan font-style="normal" class="text-inner-tspan" font-weight="normal">Automated</tspan><tspan font-style="normal" class="text-inner-tspan" font-weight="normal"> checks</tspan><tspan font-style="normal" class="text-inner-tspan" font-weight="normal"> +</tspan><tspan font-style="normal" class="text-inner-tspan" font-weight="normal"> peer</tspan></tspan><tspan class="text-outer-tspan" x="0" y="2.1em" dy="1.1em"><tspan font-style="normal" class="text-inner-tspan" font-weight="normal">review</tspan></tspan></text></g></g></g><g class="node default" id="flowchart-Approved-3" transform="translate(132.71875, 385.3999938964844)"><g class="basic label-container outer-path"><path d="M-29.75 -16 C-9.494944647092417 -16, 10.760110705815165 -16, 29.75 -16 C29.75 -16, 29.75 -16, 29.75 -16 C30.08359116193402 -15.989302380732582, 30.417182323868044 -15.978604761465165, 30.775123519691405 -15.967126284005381 C31.099934018453936 -15.935792205831538, 31.424744517216467 -15.904458127657694, 31.796034586952093 -15.868640221171939 C32.020608888953106 -15.832332789624138, 32.24518319095412 -15.796025358076337, 32.80853805922195 -15.704946511857047 C33.022990799042965 -15.655999073427813, 33.23744353886398 -15.607051634998578, 33.80847334255211 -15.476717808624471 C34.0310377156351 -15.410661870957675, 34.25360208871808 -15.34460593329088, 34.791731488377934 -15.184891952170698 C35.168380142947065 -15.046281765587263, 35.54502879751619 -14.907671579003829, 35.75427207806999 -14.830668117536348 C36.0207143372937 -14.712722033106813, 36.287156596517406 -14.594775948677276, 36.69213982588093 -14.415501886438706 C36.89444273983553 -14.30996058580979, 37.09674565379014 -14.204419285180874, 37.601480832063004 -13.941099265974232 C37.90127181551444 -13.7593642100386, 38.20106279896588 -13.577629154102967, 38.47855841936878 -13.409409678269451 C38.69676095419195 -13.257201035812301, 38.914963489015115 -13.10499239335515, 39.319768487859456 -12.822617949887306 C39.52039767509111 -12.662621512036953, 39.72102686232277 -12.5026250741866, 40.12165432492461 -12.183135333906153 C40.392982520703505 -11.936722245450428, 40.664310716482404 -11.6903091569947, 40.880920809655784 -11.493589601563642 C41.11766181836563 -11.24913507327243, 41.35440282707548 -11.00468054498122, 41.59444795320505 -10.756814244181072 C41.739373492872616 -10.586576458790727, 41.884299032540184 -10.416338673400382, 42.25930371948848 -9.975836829739738 C42.414429001081245 -9.76798308460931, 42.569554282674005 -9.560129339478884, 42.87275607355129 -9.153866561954718 C43.08017216834471 -8.835219741331969, 43.28758826313813 -8.51657292070922, 43.432284208085534 -8.294281092968403 C43.54446263406484 -8.095096938344756, 43.656641060044144 -7.89591278372111, 43.935588901968 -7.400612643853364 C44.034310148593285 -7.1956158629396665, 44.13303139521857 -6.990619082025969, 44.380601968252996 -6.476533489958305 C44.51602228958908 -6.142042678084384, 44.65144261092516 -5.807551866210464, 44.765494752796165 -5.52584087074093 C44.84947627993687 -5.272901891632336, 44.93345780707758 -5.019962912523742, 45.08868564858657 -4.552441386096524 C45.1863947545497 -4.1798342176647045, 45.28410386051283 -3.8072270492328855, 45.348846594909176 -3.560334943301032 C45.415495996212016 -3.2181043539669227, 45.48214539751485 -2.875873764632814, 45.544908534631205 -2.5535983205340735 C45.57230337467469 -2.341129350879864, 45.59969821471817 -2.128660381225654, 45.67606580718717 -1.536368414522911 C45.693517989753296 -1.2645365839072813, 45.71097017231942 -0.9927047532916514, 45.741779459211 -0.5128252411464826 C45.741779459211 -0.13705489606546728, 45.741779459211 0.2387154490155481, 45.741779459211 0.5128252411464788 C45.721551162812254 0.8278972855440269, 45.7013228664135 1.1429693299415749, 45.67606580718717 1.5363684145229002 C45.6365432377686 1.8428976583192704, 45.59702066835003 2.1494269021156405, 45.544908534631205 2.5535983205340624 C45.48769409755516 2.8473823626439634, 45.43047966047912 3.141166404753864, 45.348846594909176 3.5603349433010285 C45.281853782604074 3.815807571488909, 45.214860970298965 4.07128019967679, 45.08868564858657 4.552441386096513 C44.989375086845705 4.8515489750707985, 44.89006452510483 5.150656564045083, 44.765494752796165 5.525840870740919 C44.67275831663822 5.754901660988054, 44.58002188048029 5.983962451235188, 44.380601968253 6.4765334899583005 C44.26911558386435 6.708037352567833, 44.15762919947569 6.939541215177365, 43.935588901968 7.400612643853361 C43.78586681556778 7.666459369262212, 43.636144729167555 7.9323060946710635, 43.43228420808554 8.294281092968399 C43.29632280815789 8.503154314005146, 43.16036140823023 8.71202753504189, 42.8727560735513 9.15386656195471 C42.71556252246268 9.36449159978635, 42.558368971374065 9.57511663761799, 42.25930371948848 9.975836829739734 C42.0150971021758 10.262695818185382, 41.77089048486312 10.549554806631031, 41.594447953205055 10.756814244181063 C41.43923744081998 10.917081841238703, 41.28402692843491 11.077349438296345, 40.880920809655784 11.493589601563638 C40.65498664501674 11.6987770319984, 40.4290524803777 11.903964462433162, 40.12165432492463 12.183135333906142 C39.94385087957169 12.324928850026717, 39.76604743421875 12.466722366147293, 39.31976848785946 12.822617949887304 C39.090673883348316 12.982424428648688, 38.861579278837176 13.142230907410072, 38.47855841936879 13.409409678269446 C38.29285812383044 13.521982288720862, 38.10715782829209 13.634554899172276, 37.601480832063004 13.94109926597423 C37.31979277240334 14.088055746268862, 37.03810471274368 14.235012226563494, 36.69213982588093 14.415501886438705 C36.38178678742667 14.55288597026662, 36.07143374897241 14.690270054094537, 35.754272078069995 14.830668117536346 C35.42562811940934 14.95161213227492, 35.096984160748676 15.072556147013493, 34.79173148837794 15.184891952170695 C34.506797030822206 15.26945900352175, 34.22186257326646 15.354026054872804, 33.80847334255213 15.476717808624468 C33.60487556462728 15.523187672836151, 33.40127778670242 15.569657537047835, 32.80853805922196 15.704946511857045 C32.5330525191347 15.749484877556082, 32.257566979047446 15.794023243255118, 31.796034586952103 15.868640221171937 C31.545893456459808 15.892771035191805, 31.29575232596751 15.916901849211673, 30.775123519691405 15.967126284005381 C30.564884584956925 15.973868237437054, 30.354645650222444 15.980610190868727, 29.750000000000004 16 C29.750000000000004 16, 29.75 16, 29.75 16 C13.562395104137714 16, -2.625209791724572 16, -29.749999999999996 16 C-30.15023266815003 15.987165317338057, -30.55046533630006 15.974330634676114, -30.775123519691398 15.967126284005381 C-30.989472881164957 15.94644825889685, -31.203822242638516 15.92577023378832, -31.7960345869521 15.868640221171937 C-32.10861675590401 15.818104360206718, -32.421198924855915 15.767568499241497, -32.80853805922196 15.704946511857045 C-33.07332325415071 15.644511018999435, -33.33810844907946 15.584075526141822, -33.80847334255211 15.476717808624471 C-34.03320899851627 15.41001744559584, -34.25794465448043 15.343317082567209, -34.79173148837792 15.184891952170702 C-35.02094873701484 15.100537885811296, -35.25016598565176 15.016183819451891, -35.75427207806999 14.830668117536348 C-36.123827445476316 14.667076918856045, -36.49338281288264 14.503485720175743, -36.69213982588093 14.415501886438708 C-36.87512867567376 14.320036720711743, -37.058117525466585 14.224571554984777, -37.601480832063 13.941099265974234 C-37.81530098011952 13.811480235675708, -38.02912112817604 13.68186120537718, -38.47855841936877 13.409409678269457 C-38.72143402814665 13.239990167501652, -38.96430963692454 13.070570656733848, -39.319768487859456 12.822617949887308 C-39.493977464719734 12.683690926736805, -39.66818644158001 12.5447639035863, -40.12165432492461 12.183135333906154 C-40.419623687601955 11.912527442559904, -40.717593050279305 11.641919551213654, -40.88092080965578 11.493589601563649 C-41.098455504564946 11.268967169139334, -41.31599019947411 11.044344736715017, -41.59444795320505 10.756814244181069 C-41.83977271802532 10.4686418160486, -42.085097482845605 10.18046938791613, -42.25930371948847 9.97583682973974 C-42.414739602380216 9.76756690716504, -42.57017548527196 9.559296984590341, -42.87275607355129 9.15386656195472 C-43.003476034712186 8.9530455983871, -43.13419599587308 8.752224634819477, -43.432284208085534 8.29428109296841 C-43.61862712587385 7.963410373168717, -43.804970043662166 7.632539653369024, -43.935588901968 7.400612643853366 C-44.07645486752686 7.108101452321571, -44.21732083308572 6.815590260789776, -44.380601968252996 6.476533489958307 C-44.46406068600617 6.270388843543426, -44.547519403759345 6.064244197128546, -44.765494752796165 5.525840870740931 C-44.85391894689566 5.259521286595318, -44.94234314099516 4.993201702449704, -45.08868564858657 4.552441386096519 C-45.16514165828444 4.260881484874318, -45.24159766798231 3.9693215836521167, -45.348846594909176 3.5603349433010343 C-45.41983315472543 3.195833961659286, -45.49081971454169 2.8313329800175375, -45.544908534631205 2.5535983205340753 C-45.575305286836944 2.317847112944019, -45.60570203904268 2.0820959053539627, -45.67606580718717 1.5363684145229202 C-45.691395103467734 1.2976022513679135, -45.706724399748296 1.0588360882129066, -45.741779459211 0.5128252411464846 C-45.741779459211 0.28022398017433686, -45.741779459211 0.04762271920218908, -45.741779459211 -0.5128252411464769 C-45.71924086328685 -0.8638820654923746, -45.696702267362696 -1.2149388898382723, -45.67606580718717 -1.5363684145228982 C-45.62363191036524 -1.9430353640297475, -45.57119801354331 -2.349702313536597, -45.544908534631205 -2.5535983205340678 C-45.49890519546154 -2.789815744361112, -45.452901856291874 -3.026033168188156, -45.348846594909176 -3.5603349433010267 C-45.27632004943397 -3.836910094401644, -45.203793503958764 -4.113485245502261, -45.088685648586576 -4.552441386096511 C-45.02317635956391 -4.749744927145002, -44.95766707054125 -4.947048468193493, -44.76549475279617 -5.525840870740911 C-44.61429878503696 -5.899297834281356, -44.463102817277736 -6.272754797821801, -44.380601968253 -6.476533489958299 C-44.27702552683538 -6.691612186742805, -44.173449085417765 -6.906690883527311, -43.935588901968 -7.400612643853359 C-43.75135886411264 -7.727731731379809, -43.56712882625727 -8.054850818906258, -43.432284208085534 -8.294281092968404 C-43.29453484817014 -8.5059011006808, -43.15678548825474 -8.717521108393198, -42.872756073551294 -9.153866561954715 C-42.64050932568223 -9.465056045985262, -42.40826257781317 -9.776245530015812, -42.25930371948848 -9.975836829739734 C-42.08957198137548 -10.175213387336765, -41.91984024326248 -10.374589944933795, -41.594447953205055 -10.756814244181063 C-41.44811252309344 -10.90791759013355, -41.30177709298184 -11.059020936086037, -40.88092080965579 -11.493589601563633 C-40.66174788737568 -11.692636650580678, -40.44257496509558 -11.891683699597722, -40.12165432492463 -12.18313533390614 C-39.87162026735683 -12.382530841130748, -39.62158620978904 -12.581926348355355, -39.31976848785946 -12.822617949887302 C-39.14719709689634 -12.942996281728062, -38.97462570593323 -13.06337461356882, -38.47855841936879 -13.409409678269444 C-38.263367501916534 -13.539859677031203, -38.04817658446427 -13.670309675792959, -37.601480832063004 -13.941099265974229 C-37.26072451490399 -14.118871618371251, -36.91996819774497 -14.296643970768272, -36.692139825880936 -14.415501886438705 C-36.485932965388706 -14.506783546669434, -36.27972610489647 -14.598065206900163, -35.754272078069995 -14.830668117536344 C-35.41884879266641 -14.954106987183726, -35.083425507262824 -15.077545856831106, -34.79173148837794 -15.184891952170695 C-34.48551545745639 -15.275775262787464, -34.17929942653484 -15.366658573404235, -33.80847334255213 -15.476717808624466 C-33.59467277135736 -15.525516393820562, -33.38087220016258 -15.574314979016656, -32.808538059221966 -15.704946511857043 C-32.418761453561366 -15.767962570697527, -32.02898484790076 -15.830978629538013, -31.796034586952107 -15.868640221171937 C-31.465124405472615 -15.900562728401544, -31.134214223993123 -15.932485235631152, -30.77512351969141 -15.967126284005381 C-30.393802141873344 -15.97935451839497, -30.012480764055276 -15.991582752784561, -29.750000000000004 -16 C-29.750000000000004 -16, -29.75 -16, -29.75 -16" stroke="none" stroke-width="0" fill="#1f2020" style=""/><path d="M-29.75 -16 C-16.271689282104155 -16, -2.7933785642083144 -16, 29.75 -16 M-29.75 -16 C-7.646967906696702 -16, 14.456064186606596 -16, 29.75 -16 M29.75 -16 C29.75 -16, 29.75 -16, 29.75 -16 M29.75 -16 C29.75 -16, 29.75 -16, 29.75 -16 M29.75 -16 C30.070284369198518 -15.98972910367551, 30.390568738397036 -15.979458207351017, 30.775123519691405 -15.967126284005381 M29.75 -16 C30.020246722388254 -15.991333713616344, 30.29049344477651 -15.982667427232686, 30.775123519691405 -15.967126284005381 M30.775123519691405 -15.967126284005381 C31.1473485963948 -15.931218178521956, 31.519573673098197 -15.89531007303853, 31.796034586952093 -15.868640221171939 M30.775123519691405 -15.967126284005381 C31.130102247788127 -15.932881913030272, 31.48508097588485 -15.898637542055164, 31.796034586952093 -15.868640221171939 M31.796034586952093 -15.868640221171939 C32.055277995010535 -15.826727757419706, 32.31452140306897 -15.784815293667473, 32.80853805922195 -15.704946511857047 M31.796034586952093 -15.868640221171939 C32.146632719420246 -15.811958234043614, 32.497230851888396 -15.755276246915287, 32.80853805922195 -15.704946511857047 M32.80853805922195 -15.704946511857047 C33.12451909560974 -15.632825902270497, 33.44050013199753 -15.560705292683947, 33.80847334255211 -15.476717808624471 M32.80853805922195 -15.704946511857047 C33.081757636359534 -15.642585926299757, 33.35497721349712 -15.580225340742468, 33.80847334255211 -15.476717808624471 M33.80847334255211 -15.476717808624471 C34.18334417611667 -15.36545811295967, 34.55821500968123 -15.254198417294871, 34.791731488377934 -15.184891952170698 M33.80847334255211 -15.476717808624471 C34.192978926416686 -15.362598569644462, 34.577484510281266 -15.248479330664452, 34.791731488377934 -15.184891952170698 M34.791731488377934 -15.184891952170698 C35.14904748262529 -15.053396363294828, 35.50636347687264 -14.921900774418958, 35.75427207806999 -14.830668117536348 M34.791731488377934 -15.184891952170698 C35.114835404576425 -15.065986724269793, 35.43793932077492 -14.947081496368886, 35.75427207806999 -14.830668117536348 M35.75427207806999 -14.830668117536348 C35.99487825596021 -14.724158899913023, 36.23548443385044 -14.617649682289699, 36.69213982588093 -14.415501886438706 M35.75427207806999 -14.830668117536348 C36.11230343274913 -14.672178257442678, 36.470334787428264 -14.513688397349009, 36.69213982588093 -14.415501886438706 M36.69213982588093 -14.415501886438706 C36.98580965850579 -14.262294522862826, 37.27947949113064 -14.109087159286943, 37.601480832063004 -13.941099265974232 M36.69213982588093 -14.415501886438706 C37.02320043944775 -14.242787776395339, 37.354261053014575 -14.070073666351972, 37.601480832063004 -13.941099265974232 M37.601480832063004 -13.941099265974232 C37.82291343406077 -13.806865521360775, 38.04434603605854 -13.672631776747318, 38.47855841936878 -13.409409678269451 M37.601480832063004 -13.941099265974232 C37.951185510007875 -13.729106235111255, 38.30089018795274 -13.517113204248275, 38.47855841936878 -13.409409678269451 M38.47855841936878 -13.409409678269451 C38.814439104079355 -13.17511385265585, 39.15031978878993 -12.940818027042248, 39.319768487859456 -12.822617949887306 M38.47855841936878 -13.409409678269451 C38.807508265488586 -13.179948505625605, 39.13645811160839 -12.950487332981758, 39.319768487859456 -12.822617949887306 M39.319768487859456 -12.822617949887306 C39.52806096068456 -12.65651024570477, 39.73635343350968 -12.490402541522233, 40.12165432492461 -12.183135333906153 M39.319768487859456 -12.822617949887306 C39.564027235297615 -12.627828098803624, 39.80828598273578 -12.433038247719942, 40.12165432492461 -12.183135333906153 M40.12165432492461 -12.183135333906153 C40.31537019604314 -12.007207705197391, 40.50908606716167 -11.831280076488628, 40.880920809655784 -11.493589601563642 M40.12165432492461 -12.183135333906153 C40.37247005606435 -11.955351123105633, 40.6232857872041 -11.727566912305113, 40.880920809655784 -11.493589601563642 M40.880920809655784 -11.493589601563642 C41.06352698122586 -11.305033737172028, 41.24613315279595 -11.116477872780417, 41.59444795320505 -10.756814244181072 M40.880920809655784 -11.493589601563642 C41.0968436795083 -11.270631510843621, 41.3127665493608 -11.047673420123601, 41.59444795320505 -10.756814244181072 M41.59444795320505 -10.756814244181072 C41.750983342391976 -10.572938868926139, 41.9075187315789 -10.389063493671205, 42.25930371948848 -9.975836829739738 M41.59444795320505 -10.756814244181072 C41.7903156548403 -10.526736896652352, 41.98618335647555 -10.296659549123632, 42.25930371948848 -9.975836829739738 M42.25930371948848 -9.975836829739738 C42.39517010083419 -9.793788256418457, 42.5310364821799 -9.611739683097175, 42.87275607355129 -9.153866561954718 M42.25930371948848 -9.975836829739738 C42.497798349699565 -9.656275752564667, 42.736292979910644 -9.336714675389596, 42.87275607355129 -9.153866561954718 M42.87275607355129 -9.153866561954718 C43.00083036784894 -8.957110053150064, 43.128904662146596 -8.76035354434541, 43.432284208085534 -8.294281092968403 M42.87275607355129 -9.153866561954718 C43.00880558669988 -8.944857975348901, 43.14485509984847 -8.735849388743086, 43.432284208085534 -8.294281092968403 M43.432284208085534 -8.294281092968403 C43.60552883205272 -7.986667720194197, 43.77877345601991 -7.679054347419993, 43.935588901968 -7.400612643853364 M43.432284208085534 -8.294281092968403 C43.54489330227921 -8.094332243320254, 43.65750239647289 -7.894383393672105, 43.935588901968 -7.400612643853364 M43.935588901968 -7.400612643853364 C44.1035781641754 -7.051779346485303, 44.271567426382795 -6.702946049117242, 44.380601968252996 -6.476533489958305 M43.935588901968 -7.400612643853364 C44.05577396879741 -7.151045781033626, 44.17595903562681 -6.901478918213887, 44.380601968252996 -6.476533489958305 M44.380601968252996 -6.476533489958305 C44.52843672581744 -6.111378780583525, 44.67627148338189 -5.746224071208745, 44.765494752796165 -5.52584087074093 M44.380601968252996 -6.476533489958305 C44.52700678931937 -6.114910751379698, 44.673411610385756 -5.753288012801092, 44.765494752796165 -5.52584087074093 M44.765494752796165 -5.52584087074093 C44.89220725863554 -5.144202992048852, 45.0189197644749 -4.762565113356773, 45.08868564858657 -4.552441386096524 M44.765494752796165 -5.52584087074093 C44.892124672162915 -5.144451729346012, 45.018754591529664 -4.763062587951095, 45.08868564858657 -4.552441386096524 M45.08868564858657 -4.552441386096524 C45.15545404055581 -4.29782456991368, 45.22222243252505 -4.043207753730836, 45.348846594909176 -3.560334943301032 M45.08868564858657 -4.552441386096524 C45.18301979898242 -4.1927043859577315, 45.27735394937827 -3.8329673858189404, 45.348846594909176 -3.560334943301032 M45.348846594909176 -3.560334943301032 C45.4034709330824 -3.27985051163947, 45.45809527125564 -2.9993660799779076, 45.544908534631205 -2.5535983205340735 M45.348846594909176 -3.560334943301032 C45.39043989190378 -3.346762153980176, 45.43203318889839 -3.1331893646593203, 45.544908534631205 -2.5535983205340735 M45.544908534631205 -2.5535983205340735 C45.59118351818749 -2.1946986861005553, 45.63745850174379 -1.8357990516670368, 45.67606580718717 -1.536368414522911 M45.544908534631205 -2.5535983205340735 C45.586953233949814 -2.2275079352839118, 45.62899793326842 -1.90141755003375, 45.67606580718717 -1.536368414522911 M45.67606580718717 -1.536368414522911 C45.699053691963925 -1.1783135536383207, 45.72204157674068 -0.8202586927537304, 45.741779459211 -0.5128252411464826 M45.67606580718717 -1.536368414522911 C45.69020227752425 -1.3161814782693744, 45.704338747861335 -1.0959945420158377, 45.741779459211 -0.5128252411464826 M45.741779459211 -0.5128252411464826 C45.741779459211 -0.20105711124566766, 45.741779459211 0.11071101865514732, 45.741779459211 0.5128252411464788 M45.741779459211 -0.5128252411464826 C45.741779459211 -0.19594458016065774, 45.741779459211 0.12093608082516716, 45.741779459211 0.5128252411464788 M45.741779459211 0.5128252411464788 C45.71750896852091 0.8908577244321415, 45.69323847783082 1.2688902077178041, 45.67606580718717 1.5363684145229002 M45.741779459211 0.5128252411464788 C45.725559551575124 0.7654633950491521, 45.70933964393924 1.0181015489518255, 45.67606580718717 1.5363684145229002 M45.67606580718717 1.5363684145229002 C45.6412843141622 1.806126806041926, 45.60650282113723 2.075885197560952, 45.544908534631205 2.5535983205340624 M45.67606580718717 1.5363684145229002 C45.64674802170749 1.7637513692517501, 45.617430236227804 1.9911343239806, 45.544908534631205 2.5535983205340624 M45.544908534631205 2.5535983205340624 C45.4777323784544 2.8985336848163223, 45.41055622227759 3.243469049098582, 45.348846594909176 3.5603349433010285 M45.544908534631205 2.5535983205340624 C45.500374648142575 2.782270415412913, 45.45584076165395 3.0109425102917635, 45.348846594909176 3.5603349433010285 M45.348846594909176 3.5603349433010285 C45.25375261977337 3.922969484483382, 45.15865864463757 4.2856040256657355, 45.08868564858657 4.552441386096513 M45.348846594909176 3.5603349433010285 C45.25857059081083 3.904596472795718, 45.16829458671247 4.248858002290407, 45.08868564858657 4.552441386096513 M45.08868564858657 4.552441386096513 C44.96051894587399 4.9384590740758885, 44.83235224316142 5.324476762055263, 44.765494752796165 5.525840870740919 M45.08868564858657 4.552441386096513 C45.017935038746174 4.765530950356946, 44.947184428905786 4.97862051461738, 44.765494752796165 5.525840870740919 M44.765494752796165 5.525840870740919 C44.62405134144156 5.875208831409122, 44.48260793008696 6.2245767920773245, 44.380601968253 6.4765334899583005 M44.765494752796165 5.525840870740919 C44.67781603308684 5.74240900357568, 44.59013731337752 5.958977136410441, 44.380601968253 6.4765334899583005 M44.380601968253 6.4765334899583005 C44.22877109848301 6.79181353969588, 44.07694022871301 7.107093589433459, 43.935588901968 7.400612643853361 M44.380601968253 6.4765334899583005 C44.2363587729108 6.776057571396347, 44.0921155775686 7.075581652834394, 43.935588901968 7.400612643853361 M43.935588901968 7.400612643853361 C43.773353034086426 7.6886788554401395, 43.61111716620484 7.976745067026918, 43.43228420808554 8.294281092968399 M43.935588901968 7.400612643853361 C43.82804182052866 7.59157337727181, 43.720494739089325 7.782534110690259, 43.43228420808554 8.294281092968399 M43.43228420808554 8.294281092968399 C43.30635832347201 8.48773706756946, 43.18043243885849 8.68119304217052, 42.8727560735513 9.15386656195471 M43.43228420808554 8.294281092968399 C43.21408097217923 8.629499859093515, 42.995877736272924 8.96471862521863, 42.8727560735513 9.15386656195471 M42.8727560735513 9.15386656195471 C42.679772180418254 9.41244739755865, 42.4867882872852 9.67102823316259, 42.25930371948848 9.975836829739734 M42.8727560735513 9.15386656195471 C42.743340880038254 9.327271131295525, 42.6139256865252 9.50067570063634, 42.25930371948848 9.975836829739734 M42.25930371948848 9.975836829739734 C42.057869091672465 10.212453405527448, 41.85643446385645 10.449069981315162, 41.594447953205055 10.756814244181063 M42.25930371948848 9.975836829739734 C42.079111600183914 10.187500746296926, 41.89891948087935 10.399164662854117, 41.594447953205055 10.756814244181063 M41.594447953205055 10.756814244181063 C41.34975014098451 11.00948482536278, 41.105052328763975 11.262155406544494, 40.880920809655784 11.493589601563638 M41.594447953205055 10.756814244181063 C41.38776719684396 10.970229093929568, 41.181086440482865 11.183643943678073, 40.880920809655784 11.493589601563638 M40.880920809655784 11.493589601563638 C40.677746925860376 11.678106747140244, 40.47457304206496 11.86262389271685, 40.12165432492463 12.183135333906142 M40.880920809655784 11.493589601563638 C40.61394656756659 11.736048544477681, 40.346972325477395 11.978507487391722, 40.12165432492463 12.183135333906142 M40.12165432492463 12.183135333906142 C39.88611593874722 12.370970928942937, 39.6505775525698 12.558806523979731, 39.31976848785946 12.822617949887304 M40.12165432492463 12.183135333906142 C39.85364486689169 12.396865744656205, 39.58563540885876 12.610596155406268, 39.31976848785946 12.822617949887304 M39.31976848785946 12.822617949887304 C39.0287092242527 13.025648292426933, 38.73764996064594 13.22867863496656, 38.47855841936879 13.409409678269446 M39.31976848785946 12.822617949887304 C39.122241025434185 12.960404556849141, 38.924713563008915 13.09819116381098, 38.47855841936879 13.409409678269446 M38.47855841936879 13.409409678269446 C38.22420575098348 13.563599760586813, 37.96985308259817 13.717789842904182, 37.601480832063004 13.94109926597423 M38.47855841936879 13.409409678269446 C38.18442905674103 13.587712626390385, 37.89029969411328 13.766015574511323, 37.601480832063004 13.94109926597423 M37.601480832063004 13.94109926597423 C37.40111925119206 14.045627774376888, 37.2007576703211 14.150156282779545, 36.69213982588093 14.415501886438705 M37.601480832063004 13.94109926597423 C37.240559179415996 14.12939186097882, 36.879637526768995 14.31768445598341, 36.69213982588093 14.415501886438705 M36.69213982588093 14.415501886438705 C36.447717805083386 14.523700264524141, 36.20329578428585 14.631898642609578, 35.754272078069995 14.830668117536346 M36.69213982588093 14.415501886438705 C36.41169724125782 14.539645499617661, 36.1312546566347 14.663789112796616, 35.754272078069995 14.830668117536346 M35.754272078069995 14.830668117536346 C35.508248470921245 14.92120707918438, 35.26222486377249 15.011746040832415, 34.79173148837794 15.184891952170695 M35.754272078069995 14.830668117536346 C35.37320838902713 14.97090307761825, 34.99214469998425 15.111138037700153, 34.79173148837794 15.184891952170695 M34.79173148837794 15.184891952170695 C34.45374532653933 15.28520447087883, 34.115759164700705 15.385516989586966, 33.80847334255213 15.476717808624468 M34.79173148837794 15.184891952170695 C34.547276784890286 15.257444824996908, 34.30282208140264 15.329997697823119, 33.80847334255213 15.476717808624468 M33.80847334255213 15.476717808624468 C33.52864450623255 15.540586914460603, 33.248815669912965 15.604456020296736, 32.80853805922196 15.704946511857045 M33.80847334255213 15.476717808624468 C33.57692945820811 15.529566189260938, 33.345385573864085 15.58241456989741, 32.80853805922196 15.704946511857045 M32.80853805922196 15.704946511857045 C32.52146084627796 15.751358929328795, 32.234383633333955 15.797771346800545, 31.796034586952103 15.868640221171937 M32.80853805922196 15.704946511857045 C32.51670690719622 15.752127509332182, 32.22487575517049 15.799308506807318, 31.796034586952103 15.868640221171937 M31.796034586952103 15.868640221171937 C31.390157205616735 15.907794724010392, 30.984279824281366 15.946949226848847, 30.775123519691405 15.967126284005381 M31.796034586952103 15.868640221171937 C31.528185433632768 15.894479306856915, 31.260336280313435 15.920318392541896, 30.775123519691405 15.967126284005381 M30.775123519691405 15.967126284005381 C30.413138169319453 15.97873444963007, 30.0511528189475 15.990342615254756, 29.750000000000004 16 M30.775123519691405 15.967126284005381 C30.44613925671305 15.977676168990076, 30.11715499373469 15.98822605397477, 29.750000000000004 16 M29.750000000000004 16 C29.750000000000004 16, 29.75 16, 29.75 16 M29.750000000000004 16 C29.750000000000004 16, 29.75 16, 29.75 16 M29.75 16 C14.467328420786377 16, -0.8153431584272468 16, -29.749999999999996 16 M29.75 16 C11.06755642804288 16, -7.614887143914238 16, -29.749999999999996 16 M-29.749999999999996 16 C-30.09167248834456 15.989043228323943, -30.433344976689128 15.978086456647887, -30.775123519691398 15.967126284005381 M-29.749999999999996 16 C-29.981996723586185 15.992560316628818, -30.213993447172378 15.985120633257639, -30.775123519691398 15.967126284005381 M-30.775123519691398 15.967126284005381 C-31.153457342869658 15.930628875096367, -31.53179116604792 15.894131466187353, -31.7960345869521 15.868640221171937 M-30.775123519691398 15.967126284005381 C-31.09845955216668 15.935934445820964, -31.421795584641966 15.904742607636544, -31.7960345869521 15.868640221171937 M-31.7960345869521 15.868640221171937 C-32.09297223022999 15.820633645792585, -32.389909873507875 15.77262707041323, -32.80853805922196 15.704946511857045 M-31.7960345869521 15.868640221171937 C-32.129590609047014 15.814713470285216, -32.46314663114193 15.760786719398496, -32.80853805922196 15.704946511857045 M-32.80853805922196 15.704946511857045 C-33.14011761132732 15.629265642847788, -33.47169716343269 15.55358477383853, -33.80847334255211 15.476717808624471 M-32.80853805922196 15.704946511857045 C-33.066873745090675 15.645983077355407, -33.32520943095939 15.587019642853768, -33.80847334255211 15.476717808624471 M-33.80847334255211 15.476717808624471 C-34.08982812468403 15.393213186149106, -34.371182906815946 15.309708563673743, -34.79173148837792 15.184891952170702 M-33.80847334255211 15.476717808624471 C-34.14252899602011 15.377571844169077, -34.47658464948811 15.278425879713682, -34.79173148837792 15.184891952170702 M-34.79173148837792 15.184891952170702 C-35.17596194012254 15.04349159414132, -35.56019239186717 14.902091236111938, -35.75427207806999 14.830668117536348 M-34.79173148837792 15.184891952170702 C-35.03364466640186 15.095865666436987, -35.275557844425805 15.006839380703273, -35.75427207806999 14.830668117536348 M-35.75427207806999 14.830668117536348 C-36.0238651700987 14.71132725289017, -36.293458262127416 14.591986388243994, -36.69213982588093 14.415501886438708 M-35.75427207806999 14.830668117536348 C-35.97736394962073 14.731911963786072, -36.20045582117148 14.633155810035797, -36.69213982588093 14.415501886438708 M-36.69213982588093 14.415501886438708 C-36.91600889441984 14.298709536776942, -37.13987796295874 14.181917187115175, -37.601480832063 13.941099265974234 M-36.69213982588093 14.415501886438708 C-36.95400551720246 14.278886723009245, -37.21587120852399 14.14227155957978, -37.601480832063 13.941099265974234 M-37.601480832063 13.941099265974234 C-37.90254572646828 13.758591957732046, -38.20361062087357 13.576084649489857, -38.47855841936877 13.409409678269457 M-37.601480832063 13.941099265974234 C-37.904384725013465 13.757477146006801, -38.20728861796393 13.573855026039368, -38.47855841936877 13.409409678269457 M-38.47855841936877 13.409409678269457 C-38.73041213042597 13.233727432007386, -38.982265841483176 13.058045185745314, -39.319768487859456 12.822617949887308 M-38.47855841936877 13.409409678269457 C-38.76735084362734 13.207960584729232, -39.056143267885915 13.006511491189007, -39.319768487859456 12.822617949887308 M-39.319768487859456 12.822617949887308 C-39.54260691983179 12.64491023036909, -39.76544535180412 12.467202510850873, -40.12165432492461 12.183135333906154 M-39.319768487859456 12.822617949887308 C-39.629341288777646 12.575741879233263, -39.938914089695835 12.328865808579216, -40.12165432492461 12.183135333906154 M-40.12165432492461 12.183135333906154 C-40.41273269369365 11.918785660901722, -40.70381106246269 11.65443598789729, -40.88092080965578 11.493589601563649 M-40.12165432492461 12.183135333906154 C-40.34151231345743 11.98346612584426, -40.561370301990245 11.783796917782366, -40.88092080965578 11.493589601563649 M-40.88092080965578 11.493589601563649 C-41.151225768171145 11.214477539446717, -41.421530726686505 10.935365477329784, -41.59444795320505 10.756814244181069 M-40.88092080965578 11.493589601563649 C-41.13645289708263 11.229731741720881, -41.39198498450948 10.965873881878114, -41.59444795320505 10.756814244181069 M-41.59444795320505 10.756814244181069 C-41.79835441450255 10.517294112134687, -42.002260875800054 10.277773980088305, -42.25930371948847 9.97583682973974 M-41.59444795320505 10.756814244181069 C-41.799091705109035 10.516428048635285, -42.00373545701302 10.2760418530895, -42.25930371948847 9.97583682973974 M-42.25930371948847 9.97583682973974 C-42.43370489184972 9.742155147049317, -42.60810606421097 9.508473464358895, -42.87275607355129 9.15386656195472 M-42.25930371948847 9.97583682973974 C-42.39062767570584 9.799874692267002, -42.5219516319232 9.623912554794266, -42.87275607355129 9.15386656195472 M-42.87275607355129 9.15386656195472 C-43.07088037338429 8.849494433587486, -43.269004673217296 8.54512230522025, -43.432284208085534 8.29428109296841 M-42.87275607355129 9.15386656195472 C-42.99930341772399 8.959455858585503, -43.1258507618967 8.765045155216285, -43.432284208085534 8.29428109296841 M-43.432284208085534 8.29428109296841 C-43.566600396159956 8.05578910005339, -43.70091658423438 7.817297107138372, -43.935588901968 7.400612643853366 M-43.432284208085534 8.29428109296841 C-43.54277584347959 8.098092005834948, -43.65326747887364 7.901902918701485, -43.935588901968 7.400612643853366 M-43.935588901968 7.400612643853366 C-44.070590223529216 7.120279511065963, -44.20559154509043 6.839946378278559, -44.380601968252996 6.476533489958307 M-43.935588901968 7.400612643853366 C-44.092440703006545 7.074906522905923, -44.24929250404509 6.749200401958481, -44.380601968252996 6.476533489958307 M-44.380601968252996 6.476533489958307 C-44.48285858619268 6.223957666650082, -44.58511520413236 5.971381843341858, -44.765494752796165 5.525840870740931 M-44.380601968252996 6.476533489958307 C-44.49995399575417 6.181731674515935, -44.61930602325535 5.886929859073563, -44.765494752796165 5.525840870740931 M-44.765494752796165 5.525840870740931 C-44.85836465907773 5.246131509830977, -44.95123456535929 4.966422148921021, -45.08868564858657 4.552441386096519 M-44.765494752796165 5.525840870740931 C-44.854321211716965 5.258309729045748, -44.94314767063777 4.9907785873505635, -45.08868564858657 4.552441386096519 M-45.08868564858657 4.552441386096519 C-45.15505568753427 4.299343662632079, -45.22142572648198 4.04624593916764, -45.348846594909176 3.5603349433010343 M-45.08868564858657 4.552441386096519 C-45.175050559304296 4.2230945507407585, -45.261415470022015 3.893747715384998, -45.348846594909176 3.5603349433010343 M-45.348846594909176 3.5603349433010343 C-45.41667109806563 3.2120704543064864, -45.48449560122208 2.863805965311939, -45.544908534631205 2.5535983205340753 M-45.348846594909176 3.5603349433010343 C-45.41876402200994 3.201323732192088, -45.4886814491107 2.8423125210831417, -45.544908534631205 2.5535983205340753 M-45.544908534631205 2.5535983205340753 C-45.57285986749028 2.336813302494056, -45.600811200349355 2.120028284454036, -45.67606580718717 1.5363684145229202 M-45.544908534631205 2.5535983205340753 C-45.58309583382915 2.257425168889996, -45.62128313302709 1.9612520172459167, -45.67606580718717 1.5363684145229202 M-45.67606580718717 1.5363684145229202 C-45.698474908637586 1.1873285711316033, -45.720884010088 0.8382887277402864, -45.741779459211 0.5128252411464846 M-45.67606580718717 1.5363684145229202 C-45.699253779985526 1.1751970211938065, -45.72244175278387 0.814025627864693, -45.741779459211 0.5128252411464846 M-45.741779459211 0.5128252411464846 C-45.741779459211 0.21162327141876014, -45.741779459211 -0.08957869830896437, -45.741779459211 -0.5128252411464769 M-45.741779459211 0.5128252411464846 C-45.741779459211 0.16167892511562676, -45.741779459211 -0.18946739091523113, -45.741779459211 -0.5128252411464769 M-45.741779459211 -0.5128252411464769 C-45.716674785567804 -0.9038507972671372, -45.691570111924605 -1.2948763533877976, -45.67606580718717 -1.5363684145228982 M-45.741779459211 -0.5128252411464769 C-45.71939235265879 -0.8615224962444443, -45.69700524610657 -1.2102197513424118, -45.67606580718717 -1.5363684145228982 M-45.67606580718717 -1.5363684145228982 C-45.63471904149943 -1.8570457643546434, -45.59337227581169 -2.1777231141863886, -45.544908534631205 -2.5535983205340678 M-45.67606580718717 -1.5363684145228982 C-45.64268916804701 -1.7952310367310902, -45.609312528906855 -2.054093658939282, -45.544908534631205 -2.5535983205340678 M-45.544908534631205 -2.5535983205340678 C-45.49495860853519 -2.810080634116479, -45.44500868243917 -3.0665629476988903, -45.348846594909176 -3.5603349433010267 M-45.544908534631205 -2.5535983205340678 C-45.50384964319301 -2.764427050269413, -45.46279075175482 -2.9752557800047583, -45.348846594909176 -3.5603349433010267 M-45.348846594909176 -3.5603349433010267 C-45.262129957910915 -3.8910230634036105, -45.17541332091266 -4.221711183506194, -45.088685648586576 -4.552441386096511 M-45.348846594909176 -3.5603349433010267 C-45.28436102802964 -3.806246358034183, -45.2198754611501 -4.052157772767339, -45.088685648586576 -4.552441386096511 M-45.088685648586576 -4.552441386096511 C-45.00081516434125 -4.817093284383046, -44.91294468009592 -5.08174518266958, -44.76549475279617 -5.525840870740911 M-45.088685648586576 -4.552441386096511 C-44.98366275919982 -4.868753595804409, -44.87863986981306 -5.185065805512307, -44.76549475279617 -5.525840870740911 M-44.76549475279617 -5.525840870740911 C-44.6164840431634 -5.893900204459941, -44.46747333353063 -6.261959538178971, -44.380601968253 -6.476533489958299 M-44.76549475279617 -5.525840870740911 C-44.67844863350983 -5.740846468300398, -44.591402514223496 -5.955852065859885, -44.380601968253 -6.476533489958299 M-44.380601968253 -6.476533489958299 C-44.20702798532249 -6.836963579401788, -44.03345400239198 -7.197393668845277, -43.935588901968 -7.400612643853359 M-44.380601968253 -6.476533489958299 C-44.25138385853946 -6.7448576596031, -44.12216574882592 -7.0131818292479, -43.935588901968 -7.400612643853359 M-43.935588901968 -7.400612643853359 C-43.758926830534826 -7.714294040657507, -43.582264759101655 -8.027975437461656, -43.432284208085534 -8.294281092968404 M-43.935588901968 -7.400612643853359 C-43.76534825585654 -7.7028921497589895, -43.59510760974507 -8.00517165566462, -43.432284208085534 -8.294281092968404 M-43.432284208085534 -8.294281092968404 C-43.21022231169841 -8.635427797787477, -42.98816041531128 -8.97657450260655, -42.872756073551294 -9.153866561954715 M-43.432284208085534 -8.294281092968404 C-43.26544125262699 -8.550596676159358, -43.09859829716846 -8.806912259350314, -42.872756073551294 -9.153866561954715 M-42.872756073551294 -9.153866561954715 C-42.64684422364602 -9.456567859834863, -42.42093237374075 -9.75926915771501, -42.25930371948848 -9.975836829739734 M-42.872756073551294 -9.153866561954715 C-42.65455840100604 -9.446231564948446, -42.43636072846079 -9.738596567942178, -42.25930371948848 -9.975836829739734 M-42.25930371948848 -9.975836829739734 C-42.02709791553091 -10.248598979952842, -41.79489211157335 -10.52136113016595, -41.594447953205055 -10.756814244181063 M-42.25930371948848 -9.975836829739734 C-42.10308911765734 -10.159335389913247, -41.946874515826195 -10.34283395008676, -41.594447953205055 -10.756814244181063 M-41.594447953205055 -10.756814244181063 C-41.33439703691235 -11.025338165830572, -41.07434612061965 -11.29386208748008, -40.88092080965579 -11.493589601563633 M-41.594447953205055 -10.756814244181063 C-41.44017107029427 -10.916117792154095, -41.28589418738349 -11.075421340127127, -40.88092080965579 -11.493589601563633 M-40.88092080965579 -11.493589601563633 C-40.70045015551586 -11.657488274661672, -40.51997950137593 -11.821386947759713, -40.12165432492463 -12.18313533390614 M-40.88092080965579 -11.493589601563633 C-40.58631819942868 -11.761139897413965, -40.29171558920158 -12.028690193264296, -40.12165432492463 -12.18313533390614 M-40.12165432492463 -12.18313533390614 C-39.906009753762554 -12.355106140864851, -39.69036518260048 -12.527076947823563, -39.31976848785946 -12.822617949887302 M-40.12165432492463 -12.18313533390614 C-39.85958525027623 -12.39212844698727, -39.597516175627845 -12.6011215600684, -39.31976848785946 -12.822617949887302 M-39.31976848785946 -12.822617949887302 C-38.99925934992961 -13.046191249890207, -38.678750211999755 -13.269764549893111, -38.47855841936879 -13.409409678269444 M-39.31976848785946 -12.822617949887302 C-39.10402400472117 -12.973111961896429, -38.88827952158287 -13.123605973905555, -38.47855841936879 -13.409409678269444 M-38.47855841936879 -13.409409678269444 C-38.27229422591474 -13.534448244484235, -38.06603003246069 -13.659486810699027, -37.601480832063004 -13.941099265974229 M-38.47855841936879 -13.409409678269444 C-38.28925849359884 -13.52416440572103, -38.09995856782889 -13.638919133172617, -37.601480832063004 -13.941099265974229 M-37.601480832063004 -13.941099265974229 C-37.275931744773345 -14.110938016289104, -36.95038265748368 -14.28077676660398, -36.692139825880936 -14.415501886438705 M-37.601480832063004 -13.941099265974229 C-37.25741842673013 -14.120596402453899, -36.91335602139726 -14.30009353893357, -36.692139825880936 -14.415501886438705 M-36.692139825880936 -14.415501886438705 C-36.43121922572452 -14.531003696193345, -36.17029862556811 -14.646505505947987, -35.754272078069995 -14.830668117536344 M-36.692139825880936 -14.415501886438705 C-36.432208709992956 -14.53056568085972, -36.17227759410497 -14.645629475280733, -35.754272078069995 -14.830668117536344 M-35.754272078069995 -14.830668117536344 C-35.40969168603846 -14.957476887070177, -35.06511129400691 -15.084285656604012, -34.79173148837794 -15.184891952170695 M-35.754272078069995 -14.830668117536344 C-35.50578914607948 -14.922112133459898, -35.25730621408896 -15.013556149383453, -34.79173148837794 -15.184891952170695 M-34.79173148837794 -15.184891952170695 C-34.47502637527195 -15.27888836732149, -34.158321262165956 -15.372884782472287, -33.80847334255213 -15.476717808624466 M-34.79173148837794 -15.184891952170695 C-34.46208889873948 -15.282728142446128, -34.13244630910102 -15.38056433272156, -33.80847334255213 -15.476717808624466 M-33.80847334255213 -15.476717808624466 C-33.43086814273784 -15.562903731377867, -33.053262942923546 -15.649089654131268, -32.808538059221966 -15.704946511857043 M-33.80847334255213 -15.476717808624466 C-33.532134738217245 -15.539790291785986, -33.25579613388236 -15.602862774947505, -32.808538059221966 -15.704946511857043 M-32.808538059221966 -15.704946511857043 C-32.589791435359764 -15.74031176959768, -32.37104481149756 -15.775677027338318, -31.796034586952107 -15.868640221171937 M-32.808538059221966 -15.704946511857043 C-32.58545487423921 -15.741012871169119, -32.362371689256456 -15.777079230481192, -31.796034586952107 -15.868640221171937 M-31.796034586952107 -15.868640221171937 C-31.579684205400156 -15.889511282280852, -31.363333823848205 -15.910382343389767, -30.77512351969141 -15.967126284005381 M-31.796034586952107 -15.868640221171937 C-31.53804141213008 -15.89352851246483, -31.280048237308055 -15.918416803757722, -30.77512351969141 -15.967126284005381 M-30.77512351969141 -15.967126284005381 C-30.372173004326203 -15.980048122737546, -29.969222488961 -15.99296996146971, -29.750000000000004 -16 M-30.77512351969141 -15.967126284005381 C-30.514383053662005 -15.975487723250415, -30.253642587632598 -15.98384916249545, -29.750000000000004 -16 M-29.750000000000004 -16 C-29.750000000000004 -16, -29.75 -16, -29.75 -16 M-29.750000000000004 -16 C-29.750000000000004 -16, -29.750000000000004 -16, -29.75 -16" stroke="#ccc" stroke-width="1.3" fill="none" stroke-dasharray="0 0" style=""/></g><g class="label" style="" transform="translate(0, -8.5)"><rect/><g><rect class="background" style="stroke: none"/><text y="-10.1" style=""><tspan class="text-outer-tspan" x="0" y="-0.1em" dy="1.1em"><tspan font-style="normal" class="text-inner-tspan" font-weight="normal">Approved</tspan></tspan></text></g></g></g></g></g></g></svg>